%
M48
M72
T01C0.02362
T02C0.02400
T03C0.03150
T04C0.03200
T05C0.03900
T06C0.04000
T07C0.04724
T08C0.05512
%
T01
X53500Y182000
T02
X48500Y189000
X49500Y163000
X51500Y129000
X63500Y117000
X49500Y106000
X49500Y101000
X49500Y81000
X61500Y69000
X81500Y71000
X83500Y42000
X89500Y38000
X53500Y21000
X39500Y25000
X35500Y41000
X18500Y133000
X24500Y147000
X81500Y113000
X90500Y126000
X100500Y131000
X82500Y157000
X82500Y177000
X85500Y186000
X92500Y193000
X102500Y180000
T03
X98500Y187000
X98500Y197000
X98500Y212000
X98500Y222000
X98500Y172000
X98500Y162000
X98500Y147000
X98500Y137000
X78500Y97000
X78500Y87000
T04
X78500Y77000
X78500Y57000
X73500Y47000
X73500Y37000
X73500Y27000
X63500Y36000
X63500Y47000
X53500Y27000
X43500Y36000
X43500Y47000
X27500Y41000
X27500Y33000
X27500Y23000
X27500Y61000
X27500Y68000
X27500Y88000
X27500Y96000
X27500Y106000
X31000Y115000
X32000Y128000
X31500Y141000
X31000Y152000
X21000Y170000
X21000Y189000
X28500Y202500
X28500Y222500
X13500Y227000
X13500Y207000
X11000Y152000
X11500Y141000
X12000Y128000
X11000Y115000
X86000Y204500
X88500Y197000
X88500Y177000
X88500Y167000
X88500Y147000
X88500Y137000
X98500Y122000
X93500Y107000
X88500Y117000
X103500Y107000
X108500Y122000
X86000Y224500
T05
X68500Y192000
X68500Y182000
X68500Y172000
X68500Y162000
X68500Y152000
X68500Y142000
X68500Y132000
X68500Y122000
X68500Y112000
X68500Y102000
X68500Y92000
X68500Y82000
X68500Y72000
X68500Y62000
X38500Y62000
X38500Y72000
X38500Y82000
X38500Y92000
X38500Y102000
X38500Y112000
X38500Y122000
X38500Y132000
X38500Y142000
X38500Y152000
X38500Y162000
X38500Y172000
X38500Y182000
X38500Y192000
T06
X13500Y22000
X13500Y32000
X13500Y42000
X13500Y52000
X13500Y62000
X13500Y72000
X13500Y82000
X13500Y92000
X38500Y12000
X48500Y12000
X58500Y12000
X68500Y12000
X78500Y12000
X88500Y12000
X103500Y22000
X103500Y32000
X103500Y42000
X103500Y52000
X103500Y62000
X103500Y72000
X103500Y82000
X103500Y92000
X78500Y122000
X78500Y132000
X78500Y142000
X78500Y152000
X78500Y162000
X78500Y172000
X78500Y182000
X78500Y192000
T07
X73756Y211587
X73756Y211587
X43244Y211587
X43244Y211587
T08
X43835Y226547
X43835Y226547
X73165Y226547
X73165Y226390
M30
