G75*
%MOIN*%
%OFA0B0*%
%FSLAX25Y25*%
%IPPOS*%
%LPD*%
%AMOC8*
5,1,8,0,0,1.08239X$1,22.5*
%
%ADD10R,0.06000X0.06000*%
%ADD11C,0.06600*%
%ADD12R,0.06600X0.06600*%
%ADD13OC8,0.05200*%
%ADD14R,0.05900X0.05900*%
%ADD15C,0.05900*%
%ADD16C,0.07087*%
%ADD17C,0.00500*%
%ADD18C,0.05150*%
%ADD19C,0.07874*%
%ADD20C,0.08661*%
%ADD21C,0.06000*%
%ADD22C,0.01000*%
%ADD23C,0.04000*%
%ADD24C,0.01600*%
D10*
X0013500Y0092000D03*
D11*
X0013500Y0082000D03*
X0013500Y0072000D03*
X0013500Y0062000D03*
X0013500Y0052000D03*
X0013500Y0042000D03*
X0013500Y0032000D03*
X0013500Y0022000D03*
X0078500Y0122000D03*
X0078500Y0132000D03*
X0078500Y0142000D03*
X0078500Y0152000D03*
X0078500Y0162000D03*
X0078500Y0172000D03*
X0078500Y0182000D03*
X0078500Y0192000D03*
X0103500Y0082000D03*
X0103500Y0072000D03*
X0103500Y0062000D03*
X0103500Y0052000D03*
X0103500Y0042000D03*
X0103500Y0032000D03*
X0103500Y0022000D03*
D12*
X0103500Y0092000D03*
D13*
X0103500Y0107000D03*
X0098500Y0122000D03*
X0093500Y0107000D03*
X0088500Y0117000D03*
X0088500Y0137000D03*
X0088500Y0147000D03*
X0088500Y0167000D03*
X0088500Y0177000D03*
X0088500Y0197000D03*
X0086000Y0204500D03*
X0086000Y0224500D03*
X0108500Y0122000D03*
X0078500Y0077000D03*
X0078500Y0057000D03*
X0073500Y0047000D03*
X0073500Y0037000D03*
X0073500Y0027000D03*
X0063500Y0036000D03*
X0063500Y0047000D03*
X0053500Y0027000D03*
X0043500Y0036000D03*
X0043500Y0047000D03*
X0027500Y0041000D03*
X0027500Y0033000D03*
X0027500Y0023000D03*
X0027500Y0061000D03*
X0027500Y0068000D03*
X0027500Y0088000D03*
X0027500Y0096000D03*
X0027500Y0106000D03*
X0031000Y0115000D03*
X0032000Y0128000D03*
X0031500Y0141000D03*
X0031000Y0152000D03*
X0012000Y0128000D03*
X0011500Y0141000D03*
X0011000Y0152000D03*
X0011000Y0115000D03*
X0028500Y0202500D03*
X0028500Y0222500D03*
X0013500Y0227000D03*
X0013500Y0207000D03*
D14*
X0038500Y0192000D03*
D15*
X0038500Y0182000D03*
X0038500Y0172000D03*
X0038500Y0162000D03*
X0038500Y0152000D03*
X0038500Y0142000D03*
X0038500Y0132000D03*
X0038500Y0122000D03*
X0038500Y0112000D03*
X0038500Y0102000D03*
X0038500Y0092000D03*
X0038500Y0082000D03*
X0038500Y0072000D03*
X0038500Y0062000D03*
X0068500Y0062000D03*
X0068500Y0072000D03*
X0068500Y0082000D03*
X0068500Y0092000D03*
X0068500Y0102000D03*
X0068500Y0112000D03*
X0068500Y0122000D03*
X0068500Y0132000D03*
X0068500Y0142000D03*
X0068500Y0152000D03*
X0068500Y0162000D03*
X0068500Y0172000D03*
X0068500Y0182000D03*
X0068500Y0192000D03*
D16*
X0021000Y0189000D03*
X0021000Y0170000D03*
D17*
X0044251Y0056254D02*
X0042750Y0054753D01*
X0044251Y0056254D02*
X0044251Y0051750D01*
X0042750Y0051750D02*
X0045753Y0051750D01*
X0047354Y0052501D02*
X0050356Y0055503D01*
X0050356Y0052501D01*
X0049606Y0051750D01*
X0048105Y0051750D01*
X0047354Y0052501D01*
X0047354Y0055503D01*
X0048105Y0056254D01*
X0049606Y0056254D01*
X0050356Y0055503D01*
X0051958Y0054753D02*
X0051958Y0052501D01*
X0052708Y0051750D01*
X0054960Y0051750D01*
X0054960Y0054753D01*
X0056562Y0054002D02*
X0058063Y0054002D01*
X0056562Y0051750D02*
X0056562Y0056254D01*
X0059564Y0056254D01*
D18*
X0078500Y0087000D03*
X0078500Y0097000D03*
X0098500Y0137000D03*
X0098500Y0147000D03*
X0098500Y0162000D03*
X0098500Y0172000D03*
X0098500Y0187000D03*
X0098500Y0197000D03*
X0098500Y0212000D03*
X0098500Y0222000D03*
D19*
X0072756Y0222413D03*
X0042244Y0222413D03*
D20*
X0042835Y0207453D03*
X0072165Y0207453D03*
D21*
X0068500Y0015000D02*
X0068500Y0009000D01*
X0058500Y0009000D02*
X0058500Y0015000D01*
X0048500Y0015000D02*
X0048500Y0009000D01*
X0038500Y0009000D02*
X0038500Y0015000D01*
X0078500Y0015000D02*
X0078500Y0009000D01*
X0088500Y0009000D02*
X0088500Y0015000D01*
D22*
X0011500Y0017000D02*
X0008500Y0020000D01*
X0008500Y0037000D01*
X0008500Y0067000D01*
X0026500Y0067000D01*
X0027500Y0068000D01*
X0031500Y0072000D01*
X0038500Y0072000D01*
X0041500Y0079000D02*
X0064500Y0079000D01*
X0066500Y0077000D01*
X0072500Y0077000D01*
X0068500Y0072000D02*
X0063500Y0077000D01*
X0031500Y0077000D01*
X0026500Y0072000D01*
X0013500Y0072000D01*
X0008500Y0074000D02*
X0011500Y0077000D01*
X0018500Y0077000D01*
X0018500Y0087000D01*
X0027500Y0096000D01*
X0023500Y0102000D02*
X0038500Y0102000D01*
X0036500Y0097000D02*
X0072500Y0097000D01*
X0076500Y0101000D01*
X0096500Y0101000D01*
X0099500Y0098000D01*
X0109500Y0098000D01*
X0109500Y0111000D01*
X0107500Y0113000D01*
X0104500Y0113000D01*
X0104500Y0122000D01*
X0098500Y0128000D01*
X0094500Y0129000D02*
X0097500Y0132000D01*
X0105500Y0132000D01*
X0105500Y0146000D01*
X0102500Y0149000D01*
X0109500Y0149000D01*
X0109500Y0167000D01*
X0100500Y0176000D01*
X0089500Y0176000D01*
X0088500Y0177000D01*
X0091500Y0172000D02*
X0078500Y0172000D01*
X0073500Y0167000D01*
X0064500Y0167000D01*
X0062500Y0172000D02*
X0045500Y0172000D01*
X0040500Y0177000D01*
X0033500Y0177000D01*
X0033500Y0184000D01*
X0036500Y0187000D01*
X0043500Y0187000D01*
X0043500Y0197000D01*
X0053500Y0197000D01*
X0068500Y0182000D01*
X0073500Y0187000D02*
X0068500Y0192000D01*
X0066500Y0197000D02*
X0062500Y0193000D01*
X0066500Y0197000D02*
X0080500Y0197000D01*
X0084500Y0193000D01*
X0092500Y0193000D01*
X0098500Y0187000D01*
X0098500Y0180000D02*
X0091500Y0187000D01*
X0073500Y0187000D01*
X0080500Y0177000D02*
X0043500Y0177000D01*
X0038500Y0182000D01*
X0036500Y0167000D02*
X0031500Y0162000D01*
X0031500Y0156000D01*
X0027500Y0156000D01*
X0017500Y0146000D01*
X0017500Y0137000D01*
X0018500Y0137000D01*
X0015500Y0139000D02*
X0014500Y0138000D01*
X0014500Y0132000D01*
X0016500Y0130000D01*
X0016500Y0092000D01*
X0013500Y0092000D01*
X0019500Y0100000D02*
X0033500Y0100000D01*
X0036500Y0097000D01*
X0038500Y0092000D02*
X0043500Y0087000D01*
X0070500Y0087000D01*
X0074500Y0091000D01*
X0078500Y0091000D01*
X0078500Y0097000D01*
X0078500Y0087000D02*
X0078500Y0077000D01*
X0074500Y0067000D02*
X0026500Y0067000D01*
X0027500Y0061000D02*
X0040500Y0048000D01*
X0042500Y0048000D01*
X0043500Y0047000D01*
X0039500Y0043000D02*
X0037500Y0045000D01*
X0016500Y0045000D01*
X0013500Y0042000D01*
X0008500Y0037000D02*
X0013500Y0032000D01*
X0013500Y0022000D02*
X0016500Y0022000D01*
X0027500Y0033000D01*
X0029500Y0037000D02*
X0023500Y0037000D01*
X0027500Y0041000D02*
X0030500Y0041000D01*
X0037500Y0034000D01*
X0039500Y0031000D02*
X0038500Y0030000D01*
X0036500Y0030000D01*
X0029500Y0037000D01*
X0034500Y0020000D02*
X0031500Y0017000D01*
X0011500Y0017000D01*
X0013500Y0052000D02*
X0018500Y0052000D01*
X0023500Y0057000D01*
X0025500Y0076000D02*
X0036500Y0087000D01*
X0040500Y0087000D01*
X0042500Y0085000D01*
X0065500Y0085000D01*
X0068500Y0082000D01*
X0074500Y0067000D02*
X0089500Y0082000D01*
X0097500Y0082000D02*
X0103500Y0082000D01*
X0097500Y0082000D02*
X0072500Y0057000D01*
X0066500Y0057000D01*
X0063500Y0060000D01*
X0040500Y0060000D01*
X0038500Y0062000D01*
X0041500Y0079000D02*
X0038500Y0082000D01*
X0033500Y0106000D02*
X0022500Y0117000D01*
X0022500Y0127000D01*
X0026500Y0127000D01*
X0024500Y0132000D02*
X0019500Y0127000D01*
X0019500Y0100000D01*
X0023500Y0102000D02*
X0023500Y0110000D01*
X0026500Y0119000D02*
X0035500Y0119000D01*
X0038500Y0122000D01*
X0038500Y0132000D02*
X0058500Y0132000D01*
X0063500Y0127000D01*
X0080500Y0127000D01*
X0081500Y0128000D01*
X0092500Y0128000D01*
X0092500Y0137000D01*
X0096500Y0141000D01*
X0100500Y0141000D01*
X0101500Y0142000D01*
X0098500Y0147000D02*
X0088500Y0137000D01*
X0088500Y0147000D02*
X0092500Y0151000D01*
X0094500Y0151000D01*
X0080500Y0137000D01*
X0066500Y0137000D01*
X0062500Y0141000D01*
X0068500Y0142000D02*
X0071500Y0145000D01*
X0074500Y0145000D01*
X0076500Y0147000D01*
X0082500Y0147000D01*
X0088500Y0153000D01*
X0105500Y0153000D01*
X0102500Y0149000D02*
X0100500Y0151000D01*
X0094500Y0151000D01*
X0098500Y0162000D02*
X0097500Y0163000D01*
X0084500Y0163000D01*
X0080500Y0167000D01*
X0076500Y0167000D01*
X0073500Y0164000D01*
X0073500Y0157000D01*
X0043500Y0157000D01*
X0038500Y0162000D01*
X0036500Y0167000D02*
X0040500Y0167000D01*
X0044500Y0163000D01*
X0067500Y0163000D01*
X0068500Y0162000D01*
X0078500Y0152000D02*
X0073500Y0147000D01*
X0043500Y0147000D01*
X0038500Y0142000D01*
X0033500Y0137000D01*
X0025500Y0137000D01*
X0021500Y0141000D01*
X0024500Y0148000D02*
X0031500Y0141000D01*
X0036500Y0137000D02*
X0031500Y0132000D01*
X0024500Y0132000D01*
X0033500Y0117000D02*
X0031500Y0115000D01*
X0031000Y0115000D01*
X0033500Y0117000D02*
X0063500Y0117000D01*
X0068500Y0112000D02*
X0067500Y0111000D01*
X0046500Y0111000D01*
X0047500Y0107000D02*
X0070500Y0107000D01*
X0078500Y0115000D01*
X0078500Y0122000D01*
X0083500Y0117000D02*
X0088500Y0117000D01*
X0093500Y0117000D01*
X0103500Y0107000D01*
X0103500Y0111000D02*
X0090500Y0124000D01*
X0094500Y0123000D02*
X0097500Y0123000D01*
X0098500Y0122000D01*
X0094500Y0123000D02*
X0094500Y0129000D01*
X0103500Y0111000D02*
X0105500Y0111000D01*
X0106500Y0110000D01*
X0107500Y0110000D01*
X0107500Y0105000D01*
X0105500Y0103000D01*
X0101500Y0103000D01*
X0100500Y0102000D01*
X0109500Y0098000D02*
X0109500Y0062000D01*
X0108500Y0062000D01*
X0108500Y0020000D01*
X0105500Y0017000D01*
X0101500Y0017000D01*
X0098500Y0020000D01*
X0086500Y0020000D01*
X0078500Y0012000D01*
X0068500Y0022000D02*
X0103500Y0022000D01*
X0092500Y0031000D02*
X0103500Y0042000D01*
X0094500Y0043000D02*
X0103500Y0052000D01*
X0103500Y0062000D02*
X0108500Y0062000D01*
X0094500Y0043000D02*
X0054500Y0043000D01*
X0050500Y0047000D01*
X0053500Y0027000D02*
X0038500Y0012000D01*
X0039500Y0031000D02*
X0092500Y0031000D01*
X0073500Y0037000D02*
X0064500Y0037000D01*
X0063500Y0036000D01*
X0068500Y0022000D02*
X0058500Y0012000D01*
X0068500Y0102000D02*
X0083500Y0117000D01*
X0083500Y0157000D02*
X0101500Y0157000D01*
X0093500Y0167000D02*
X0098500Y0172000D01*
X0093500Y0167000D02*
X0088500Y0167000D01*
X0092500Y0171000D02*
X0091500Y0172000D01*
X0092500Y0181000D02*
X0084500Y0181000D01*
X0080500Y0177000D01*
X0078500Y0162000D02*
X0083500Y0157000D01*
X0088500Y0197000D02*
X0098500Y0197000D01*
X0098500Y0222000D02*
X0096500Y0224000D01*
X0086500Y0224000D01*
X0086000Y0224500D01*
X0043500Y0197000D02*
X0035500Y0197000D01*
X0032500Y0200000D01*
X0032500Y0227000D01*
X0013500Y0227000D01*
X0013500Y0207000D02*
X0024500Y0207000D01*
X0028500Y0203000D01*
X0028500Y0202500D01*
X0011500Y0152000D02*
X0011000Y0152000D01*
X0011500Y0152000D02*
X0011500Y0145000D01*
X0013500Y0145000D01*
X0015500Y0143000D01*
X0015500Y0139000D01*
X0036500Y0137000D02*
X0042500Y0137000D01*
X0044500Y0128000D02*
X0057500Y0128000D01*
X0057500Y0121000D02*
X0051500Y0121000D01*
X0048500Y0124000D01*
X0047500Y0107000D02*
X0046500Y0106000D01*
X0008500Y0074000D02*
X0008500Y0067000D01*
D23*
X0023500Y0057000D03*
X0025500Y0076000D03*
X0033500Y0106000D03*
X0026500Y0119000D03*
X0026500Y0127000D03*
X0021500Y0141000D03*
X0018500Y0137000D03*
X0024500Y0148000D03*
X0042500Y0137000D03*
X0044500Y0128000D03*
X0048500Y0124000D03*
X0046500Y0111000D03*
X0046500Y0106000D03*
X0057500Y0121000D03*
X0057500Y0128000D03*
X0063500Y0117000D03*
X0062500Y0141000D03*
X0064500Y0167000D03*
X0062500Y0172000D03*
X0062500Y0193000D03*
X0092500Y0181000D03*
X0092500Y0171000D03*
X0098500Y0180000D03*
X0101500Y0157000D03*
X0105500Y0153000D03*
X0101500Y0142000D03*
X0098500Y0128000D03*
X0090500Y0124000D03*
X0100500Y0102000D03*
X0089500Y0082000D03*
X0072500Y0077000D03*
X0050500Y0047000D03*
X0039500Y0043000D03*
X0037500Y0034000D03*
X0034500Y0020000D03*
X0023500Y0037000D03*
X0023500Y0110000D03*
D24*
X0026800Y0115670D02*
X0024600Y0117870D01*
X0024600Y0123890D01*
X0025784Y0123400D01*
X0027216Y0123400D01*
X0028539Y0123948D01*
X0029326Y0124735D01*
X0030260Y0123800D01*
X0033740Y0123800D01*
X0034459Y0124520D01*
X0034437Y0124490D01*
X0034098Y0123823D01*
X0033867Y0123112D01*
X0033750Y0122374D01*
X0033750Y0122175D01*
X0038325Y0122175D01*
X0038325Y0126750D01*
X0038126Y0126750D01*
X0037388Y0126633D01*
X0036677Y0126402D01*
X0036010Y0126063D01*
X0035980Y0126041D01*
X0036200Y0126260D01*
X0036200Y0128028D01*
X0037595Y0127450D01*
X0039405Y0127450D01*
X0040900Y0128069D01*
X0040900Y0127284D01*
X0041448Y0125961D01*
X0042461Y0124948D01*
X0043784Y0124400D01*
X0044900Y0124400D01*
X0044900Y0123284D01*
X0045448Y0121961D01*
X0046461Y0120948D01*
X0047784Y0120400D01*
X0049130Y0120400D01*
X0050430Y0119100D01*
X0042264Y0119100D01*
X0042563Y0119510D01*
X0042902Y0120177D01*
X0043133Y0120888D01*
X0043250Y0121626D01*
X0043250Y0121825D01*
X0038675Y0121825D01*
X0038675Y0122175D01*
X0038325Y0122175D01*
X0038325Y0121825D01*
X0033750Y0121825D01*
X0033750Y0121626D01*
X0033867Y0120888D01*
X0034098Y0120177D01*
X0034437Y0119510D01*
X0034736Y0119100D01*
X0032840Y0119100D01*
X0032740Y0119200D01*
X0029260Y0119200D01*
X0026800Y0116740D01*
X0026800Y0115670D01*
X0027153Y0117093D02*
X0025377Y0117093D01*
X0024600Y0118691D02*
X0028752Y0118691D01*
X0027426Y0123487D02*
X0033989Y0123487D01*
X0034061Y0120290D02*
X0024600Y0120290D01*
X0024600Y0121888D02*
X0038325Y0121888D01*
X0038675Y0121888D02*
X0045520Y0121888D01*
X0044900Y0123487D02*
X0043011Y0123487D01*
X0042902Y0123823D02*
X0043133Y0123112D01*
X0043250Y0122374D01*
X0043250Y0122175D01*
X0038675Y0122175D01*
X0038675Y0126750D01*
X0038874Y0126750D01*
X0039612Y0126633D01*
X0040323Y0126402D01*
X0040990Y0126063D01*
X0041594Y0125623D01*
X0042123Y0125094D01*
X0042563Y0124490D01*
X0042902Y0123823D01*
X0042323Y0125085D02*
X0042130Y0125085D01*
X0041149Y0126684D02*
X0039291Y0126684D01*
X0038675Y0126684D02*
X0038325Y0126684D01*
X0037709Y0126684D02*
X0036200Y0126684D01*
X0038325Y0125085D02*
X0038675Y0125085D01*
X0038675Y0123487D02*
X0038325Y0123487D01*
X0042939Y0120290D02*
X0049240Y0120290D01*
X0042900Y0110284D02*
X0043448Y0108961D01*
X0043909Y0108500D01*
X0043448Y0108039D01*
X0042900Y0106716D01*
X0042900Y0105284D01*
X0043448Y0103961D01*
X0044461Y0102948D01*
X0045784Y0102400D01*
X0047216Y0102400D01*
X0048539Y0102948D01*
X0049552Y0103961D01*
X0049941Y0104900D01*
X0064736Y0104900D01*
X0064437Y0104490D01*
X0064098Y0103823D01*
X0063867Y0103112D01*
X0063750Y0102374D01*
X0063750Y0102175D01*
X0068325Y0102175D01*
X0068325Y0101825D01*
X0063750Y0101825D01*
X0063750Y0101626D01*
X0063867Y0100888D01*
X0064098Y0100177D01*
X0064437Y0099510D01*
X0064736Y0099100D01*
X0042035Y0099100D01*
X0042357Y0099423D01*
X0043050Y0101095D01*
X0043050Y0102905D01*
X0042357Y0104577D01*
X0041077Y0105857D01*
X0039405Y0106550D01*
X0037595Y0106550D01*
X0037100Y0106345D01*
X0037100Y0106716D01*
X0036631Y0107849D01*
X0037595Y0107450D01*
X0039405Y0107450D01*
X0041077Y0108143D01*
X0042357Y0109423D01*
X0042900Y0110733D01*
X0042900Y0110284D01*
X0042886Y0110699D02*
X0042900Y0110699D01*
X0043390Y0109100D02*
X0042035Y0109100D01*
X0043225Y0107502D02*
X0039530Y0107502D01*
X0040966Y0105903D02*
X0042900Y0105903D01*
X0043306Y0104305D02*
X0042470Y0104305D01*
X0043050Y0102706D02*
X0045045Y0102706D01*
X0043050Y0101108D02*
X0063832Y0101108D01*
X0063803Y0102706D02*
X0047955Y0102706D01*
X0049694Y0104305D02*
X0064343Y0104305D01*
X0064438Y0099509D02*
X0042393Y0099509D01*
X0037470Y0107502D02*
X0036775Y0107502D01*
X0032630Y0097900D02*
X0031540Y0097900D01*
X0031700Y0097740D01*
X0031700Y0094260D01*
X0029581Y0092141D01*
X0031900Y0089823D01*
X0031900Y0088000D01*
X0027500Y0088000D01*
X0027500Y0088000D01*
X0031900Y0088000D01*
X0031900Y0086177D01*
X0029323Y0083600D01*
X0027500Y0083600D01*
X0027500Y0088000D01*
X0027500Y0088000D01*
X0027500Y0088000D01*
X0023100Y0088000D01*
X0023100Y0088630D01*
X0020600Y0086130D01*
X0020600Y0076130D01*
X0019370Y0074900D01*
X0017530Y0074900D01*
X0017654Y0074776D01*
X0017934Y0074100D01*
X0022390Y0074100D01*
X0021900Y0075284D01*
X0021900Y0076716D01*
X0022448Y0078039D01*
X0023461Y0079052D01*
X0024784Y0079600D01*
X0026130Y0079600D01*
X0035298Y0088768D01*
X0034643Y0089423D01*
X0033950Y0091095D01*
X0033950Y0092905D01*
X0034643Y0094577D01*
X0035298Y0095232D01*
X0034400Y0096130D01*
X0032630Y0097900D01*
X0031700Y0096312D02*
X0034218Y0096312D01*
X0034779Y0094714D02*
X0031700Y0094714D01*
X0030555Y0093115D02*
X0034037Y0093115D01*
X0033950Y0091517D02*
X0030206Y0091517D01*
X0031804Y0089918D02*
X0034437Y0089918D01*
X0034850Y0088320D02*
X0031900Y0088320D01*
X0031900Y0086721D02*
X0033251Y0086721D01*
X0031653Y0085123D02*
X0030845Y0085123D01*
X0030054Y0083524D02*
X0020600Y0083524D01*
X0020600Y0081926D02*
X0028456Y0081926D01*
X0027500Y0083600D02*
X0027500Y0088000D01*
X0023100Y0088000D01*
X0023100Y0086177D01*
X0025677Y0083600D01*
X0027500Y0083600D01*
X0027500Y0085123D02*
X0027500Y0085123D01*
X0027500Y0086721D02*
X0027500Y0086721D01*
X0024155Y0085123D02*
X0020600Y0085123D01*
X0021191Y0086721D02*
X0023100Y0086721D01*
X0023100Y0088320D02*
X0022789Y0088320D01*
X0020600Y0080327D02*
X0026857Y0080327D01*
X0023137Y0078729D02*
X0020600Y0078729D01*
X0020600Y0077130D02*
X0022071Y0077130D01*
X0021900Y0075532D02*
X0020001Y0075532D01*
X0017530Y0064900D02*
X0024660Y0064900D01*
X0024919Y0064641D01*
X0023100Y0062823D01*
X0023100Y0061000D01*
X0027500Y0061000D01*
X0031900Y0061000D01*
X0031900Y0062823D01*
X0030081Y0064641D01*
X0030340Y0064900D01*
X0034965Y0064900D01*
X0034643Y0064577D01*
X0033950Y0062905D01*
X0033950Y0061095D01*
X0034643Y0059423D01*
X0035923Y0058143D01*
X0037595Y0057450D01*
X0039405Y0057450D01*
X0040491Y0057900D01*
X0043281Y0057900D01*
X0042401Y0057020D01*
X0040900Y0055519D01*
X0040900Y0053986D01*
X0041635Y0053251D01*
X0040900Y0052516D01*
X0040900Y0050984D01*
X0041081Y0050803D01*
X0039100Y0048823D01*
X0039100Y0047000D01*
X0043500Y0047000D01*
X0043500Y0042600D01*
X0045323Y0042600D01*
X0047566Y0044843D01*
X0048461Y0043948D01*
X0049784Y0043400D01*
X0051130Y0043400D01*
X0052400Y0042130D01*
X0053630Y0040900D01*
X0071460Y0040900D01*
X0069660Y0039100D01*
X0066340Y0039100D01*
X0065240Y0040200D01*
X0061760Y0040200D01*
X0059300Y0037740D01*
X0059300Y0034260D01*
X0060460Y0033100D01*
X0046540Y0033100D01*
X0047700Y0034260D01*
X0047700Y0037740D01*
X0045240Y0040200D01*
X0041791Y0040200D01*
X0042552Y0040961D01*
X0043100Y0042284D01*
X0043100Y0042600D01*
X0043500Y0042600D01*
X0043500Y0047000D01*
X0043500Y0047000D01*
X0043500Y0047000D01*
X0039100Y0047000D01*
X0039100Y0046600D01*
X0038870Y0046600D01*
X0038370Y0047100D01*
X0015630Y0047100D01*
X0015150Y0046620D01*
X0014475Y0046900D01*
X0012525Y0046900D01*
X0010724Y0046154D01*
X0010600Y0046030D01*
X0010600Y0047970D01*
X0010724Y0047846D01*
X0012525Y0047100D01*
X0014475Y0047100D01*
X0016276Y0047846D01*
X0017654Y0049224D01*
X0017934Y0049900D01*
X0019370Y0049900D01*
X0020600Y0051130D01*
X0022870Y0053400D01*
X0024216Y0053400D01*
X0025539Y0053948D01*
X0026552Y0054961D01*
X0027100Y0056284D01*
X0027100Y0056600D01*
X0027500Y0056600D01*
X0029323Y0056600D01*
X0031900Y0059177D01*
X0031900Y0061000D01*
X0027500Y0061000D01*
X0027500Y0061000D01*
X0027500Y0056600D01*
X0027500Y0061000D01*
X0027500Y0061000D01*
X0027500Y0061000D01*
X0023100Y0061000D01*
X0023100Y0060600D01*
X0022784Y0060600D01*
X0021461Y0060052D01*
X0020448Y0059039D01*
X0019900Y0057716D01*
X0019900Y0056370D01*
X0017845Y0054315D01*
X0017654Y0054776D01*
X0016276Y0056154D01*
X0014475Y0056900D01*
X0012525Y0056900D01*
X0010724Y0056154D01*
X0010600Y0056030D01*
X0010600Y0057970D01*
X0010724Y0057846D01*
X0012525Y0057100D01*
X0014475Y0057100D01*
X0016276Y0057846D01*
X0017654Y0059224D01*
X0018400Y0061025D01*
X0018400Y0062975D01*
X0017654Y0064776D01*
X0017530Y0064900D01*
X0017834Y0064342D02*
X0024619Y0064342D01*
X0023100Y0062743D02*
X0018400Y0062743D01*
X0018400Y0061145D02*
X0023100Y0061145D01*
X0020955Y0059546D02*
X0017787Y0059546D01*
X0016378Y0057948D02*
X0019996Y0057948D01*
X0019880Y0056349D02*
X0015804Y0056349D01*
X0017664Y0054751D02*
X0018281Y0054751D01*
X0019425Y0049955D02*
X0040233Y0049955D01*
X0040900Y0051554D02*
X0021024Y0051554D01*
X0022622Y0053152D02*
X0041536Y0053152D01*
X0040900Y0054751D02*
X0026342Y0054751D01*
X0027100Y0056349D02*
X0041731Y0056349D01*
X0039100Y0048357D02*
X0016786Y0048357D01*
X0015288Y0046758D02*
X0014817Y0046758D01*
X0012183Y0046758D02*
X0010600Y0046758D01*
X0010600Y0037970D02*
X0010724Y0037846D01*
X0012525Y0037100D01*
X0014475Y0037100D01*
X0016276Y0037846D01*
X0017654Y0039224D01*
X0018400Y0041025D01*
X0018400Y0042900D01*
X0023460Y0042900D01*
X0023300Y0042740D01*
X0023300Y0040600D01*
X0022784Y0040600D01*
X0021461Y0040052D01*
X0020448Y0039039D01*
X0019900Y0037716D01*
X0019900Y0036284D01*
X0020448Y0034961D01*
X0021461Y0033948D01*
X0022784Y0033400D01*
X0023100Y0033400D01*
X0023100Y0033000D01*
X0027500Y0033000D01*
X0027500Y0028600D01*
X0029323Y0028600D01*
X0031900Y0031177D01*
X0031900Y0031630D01*
X0035630Y0027900D01*
X0039370Y0027900D01*
X0040370Y0028900D01*
X0049460Y0028900D01*
X0049300Y0028740D01*
X0049300Y0025770D01*
X0041768Y0018238D01*
X0041106Y0018900D01*
X0039415Y0019600D01*
X0038100Y0019600D01*
X0038100Y0020716D01*
X0037552Y0022039D01*
X0036539Y0023052D01*
X0035216Y0023600D01*
X0033784Y0023600D01*
X0032461Y0023052D01*
X0031700Y0022291D01*
X0031700Y0024740D01*
X0029240Y0027200D01*
X0025760Y0027200D01*
X0023300Y0024740D01*
X0023300Y0021260D01*
X0025460Y0019100D01*
X0017697Y0019100D01*
X0017862Y0019327D01*
X0018226Y0020042D01*
X0018474Y0020806D01*
X0018600Y0021599D01*
X0018600Y0021800D01*
X0013700Y0021800D01*
X0013700Y0022200D01*
X0013300Y0022200D01*
X0013300Y0027100D01*
X0013099Y0027100D01*
X0012306Y0026974D01*
X0011542Y0026726D01*
X0010827Y0026362D01*
X0010600Y0026197D01*
X0010600Y0027970D01*
X0010724Y0027846D01*
X0012525Y0027100D01*
X0014475Y0027100D01*
X0016276Y0027846D01*
X0017654Y0029224D01*
X0018400Y0031025D01*
X0018400Y0032975D01*
X0017654Y0034776D01*
X0016276Y0036154D01*
X0014475Y0036900D01*
X0012525Y0036900D01*
X0011850Y0036620D01*
X0010600Y0037870D01*
X0010600Y0037970D01*
X0011303Y0037167D02*
X0012363Y0037167D01*
X0014637Y0037167D02*
X0019900Y0037167D01*
X0020196Y0035569D02*
X0016861Y0035569D01*
X0017988Y0033970D02*
X0021439Y0033970D01*
X0023100Y0033000D02*
X0023100Y0031177D01*
X0025677Y0028600D01*
X0027500Y0028600D01*
X0027500Y0033000D01*
X0027500Y0033000D01*
X0027500Y0033000D01*
X0023100Y0033000D01*
X0023100Y0032372D02*
X0018400Y0032372D01*
X0018296Y0030773D02*
X0023504Y0030773D01*
X0025103Y0029175D02*
X0017604Y0029175D01*
X0015624Y0027576D02*
X0049300Y0027576D01*
X0049300Y0025978D02*
X0030462Y0025978D01*
X0031700Y0024379D02*
X0047909Y0024379D01*
X0046311Y0022781D02*
X0036811Y0022781D01*
X0037907Y0021182D02*
X0044712Y0021182D01*
X0043114Y0019584D02*
X0039455Y0019584D01*
X0034355Y0029175D02*
X0029897Y0029175D01*
X0031496Y0030773D02*
X0032757Y0030773D01*
X0032189Y0022781D02*
X0031700Y0022781D01*
X0027500Y0029175D02*
X0027500Y0029175D01*
X0027500Y0030773D02*
X0027500Y0030773D01*
X0027500Y0032372D02*
X0027500Y0032372D01*
X0024538Y0025978D02*
X0016702Y0025978D01*
X0016822Y0025890D02*
X0016173Y0026362D01*
X0015458Y0026726D01*
X0014694Y0026974D01*
X0013901Y0027100D01*
X0013700Y0027100D01*
X0013700Y0022200D01*
X0018600Y0022200D01*
X0018600Y0022401D01*
X0018474Y0023194D01*
X0018226Y0023958D01*
X0017862Y0024673D01*
X0017390Y0025322D01*
X0016822Y0025890D01*
X0018012Y0024379D02*
X0023300Y0024379D01*
X0023300Y0022781D02*
X0018540Y0022781D01*
X0018534Y0021182D02*
X0023378Y0021182D01*
X0024977Y0019584D02*
X0017993Y0019584D01*
X0013700Y0022781D02*
X0013300Y0022781D01*
X0013300Y0024379D02*
X0013700Y0024379D01*
X0013700Y0025978D02*
X0013300Y0025978D01*
X0011376Y0027576D02*
X0010600Y0027576D01*
X0017195Y0038766D02*
X0020335Y0038766D01*
X0022215Y0040364D02*
X0018126Y0040364D01*
X0018400Y0041963D02*
X0023300Y0041963D01*
X0027500Y0057948D02*
X0027500Y0057948D01*
X0027500Y0059546D02*
X0027500Y0059546D01*
X0030670Y0057948D02*
X0036393Y0057948D01*
X0034591Y0059546D02*
X0031900Y0059546D01*
X0031900Y0061145D02*
X0033950Y0061145D01*
X0033950Y0062743D02*
X0031900Y0062743D01*
X0030381Y0064342D02*
X0034545Y0064342D01*
X0038712Y0046758D02*
X0039100Y0046758D01*
X0042967Y0041963D02*
X0052567Y0041963D01*
X0055370Y0045100D02*
X0054100Y0046370D01*
X0054100Y0047716D01*
X0053552Y0049039D01*
X0052691Y0049900D01*
X0055727Y0049900D01*
X0055761Y0049934D01*
X0055795Y0049900D01*
X0057328Y0049900D01*
X0058412Y0050984D01*
X0058412Y0052152D01*
X0058829Y0052152D01*
X0059913Y0053236D01*
X0059913Y0054404D01*
X0060331Y0054404D01*
X0061414Y0055488D01*
X0061414Y0057020D01*
X0060534Y0057900D01*
X0062630Y0057900D01*
X0064400Y0056130D01*
X0065630Y0054900D01*
X0073370Y0054900D01*
X0074100Y0055630D01*
X0074100Y0055177D01*
X0076677Y0052600D01*
X0078500Y0052600D01*
X0080323Y0052600D01*
X0082900Y0055177D01*
X0082900Y0057000D01*
X0082900Y0058823D01*
X0080323Y0061400D01*
X0079870Y0061400D01*
X0098370Y0079900D01*
X0099066Y0079900D01*
X0099346Y0079224D01*
X0100724Y0077846D01*
X0102525Y0077100D01*
X0104475Y0077100D01*
X0106276Y0077846D01*
X0107400Y0078970D01*
X0107400Y0075030D01*
X0106276Y0076154D01*
X0104475Y0076900D01*
X0102525Y0076900D01*
X0100724Y0076154D01*
X0099346Y0074776D01*
X0098600Y0072975D01*
X0098600Y0071025D01*
X0099346Y0069224D01*
X0100724Y0067846D01*
X0102525Y0067100D01*
X0104475Y0067100D01*
X0106276Y0067846D01*
X0107400Y0068970D01*
X0107400Y0065030D01*
X0106276Y0066154D01*
X0104475Y0066900D01*
X0102525Y0066900D01*
X0100724Y0066154D01*
X0099346Y0064776D01*
X0098600Y0062975D01*
X0098600Y0061025D01*
X0099346Y0059224D01*
X0100724Y0057846D01*
X0102525Y0057100D01*
X0104475Y0057100D01*
X0106276Y0057846D01*
X0106400Y0057970D01*
X0106400Y0056030D01*
X0106276Y0056154D01*
X0104475Y0056900D01*
X0102525Y0056900D01*
X0100724Y0056154D01*
X0099346Y0054776D01*
X0098600Y0052975D01*
X0098600Y0051025D01*
X0098880Y0050350D01*
X0093630Y0045100D01*
X0077823Y0045100D01*
X0077900Y0045177D01*
X0077900Y0047000D01*
X0077900Y0048823D01*
X0075323Y0051400D01*
X0073500Y0051400D01*
X0073500Y0047000D01*
X0073500Y0047000D01*
X0077900Y0047000D01*
X0073500Y0047000D01*
X0073500Y0047000D01*
X0073500Y0047000D01*
X0069100Y0047000D01*
X0069100Y0048823D01*
X0071677Y0051400D01*
X0073500Y0051400D01*
X0073500Y0047000D01*
X0069100Y0047000D01*
X0069100Y0045177D01*
X0069177Y0045100D01*
X0067540Y0045100D01*
X0067700Y0045260D01*
X0067700Y0048740D01*
X0065240Y0051200D01*
X0061760Y0051200D01*
X0059300Y0048740D01*
X0059300Y0045260D01*
X0059460Y0045100D01*
X0055370Y0045100D01*
X0055310Y0045160D02*
X0059400Y0045160D01*
X0059300Y0046758D02*
X0054100Y0046758D01*
X0053835Y0048357D02*
X0059300Y0048357D01*
X0060516Y0049955D02*
X0057383Y0049955D01*
X0058412Y0051554D02*
X0098600Y0051554D01*
X0098674Y0053152D02*
X0080875Y0053152D01*
X0082473Y0054751D02*
X0099336Y0054751D01*
X0100622Y0057948D02*
X0082900Y0057948D01*
X0082900Y0057000D02*
X0078500Y0057000D01*
X0078500Y0057000D01*
X0082900Y0057000D01*
X0082900Y0056349D02*
X0101196Y0056349D01*
X0099213Y0059546D02*
X0082176Y0059546D01*
X0080578Y0061145D02*
X0098600Y0061145D01*
X0098600Y0062743D02*
X0081213Y0062743D01*
X0082812Y0064342D02*
X0099166Y0064342D01*
X0100511Y0065940D02*
X0084410Y0065940D01*
X0086009Y0067539D02*
X0101466Y0067539D01*
X0099433Y0069137D02*
X0087607Y0069137D01*
X0089206Y0070736D02*
X0098720Y0070736D01*
X0098600Y0072334D02*
X0090804Y0072334D01*
X0092403Y0073933D02*
X0098997Y0073933D01*
X0100102Y0075532D02*
X0094001Y0075532D01*
X0095600Y0077130D02*
X0102453Y0077130D01*
X0104547Y0077130D02*
X0107400Y0077130D01*
X0107400Y0075532D02*
X0106898Y0075532D01*
X0107158Y0078729D02*
X0107400Y0078729D01*
X0107400Y0067539D02*
X0105534Y0067539D01*
X0106489Y0065940D02*
X0107400Y0065940D01*
X0106400Y0057948D02*
X0106378Y0057948D01*
X0106400Y0056349D02*
X0105804Y0056349D01*
X0098486Y0049955D02*
X0076767Y0049955D01*
X0077900Y0048357D02*
X0096887Y0048357D01*
X0095288Y0046758D02*
X0077900Y0046758D01*
X0077882Y0045160D02*
X0093690Y0045160D01*
X0100724Y0036154D02*
X0099346Y0034776D01*
X0098600Y0032975D01*
X0098600Y0031025D01*
X0099346Y0029224D01*
X0100724Y0027846D01*
X0102525Y0027100D01*
X0104475Y0027100D01*
X0106276Y0027846D01*
X0106400Y0027970D01*
X0106400Y0026197D01*
X0106173Y0026362D01*
X0105458Y0026726D01*
X0104694Y0026974D01*
X0103901Y0027100D01*
X0103700Y0027100D01*
X0103700Y0022200D01*
X0103300Y0022200D01*
X0103300Y0027100D01*
X0103099Y0027100D01*
X0102306Y0026974D01*
X0101542Y0026726D01*
X0100827Y0026362D01*
X0100178Y0025890D01*
X0099610Y0025322D01*
X0099138Y0024673D01*
X0098774Y0023958D01*
X0098526Y0023194D01*
X0098400Y0022401D01*
X0098400Y0022200D01*
X0103300Y0022200D01*
X0103300Y0021800D01*
X0099670Y0021800D01*
X0099370Y0022100D01*
X0085630Y0022100D01*
X0084400Y0020870D01*
X0081768Y0018238D01*
X0081106Y0018900D01*
X0079415Y0019600D01*
X0077585Y0019600D01*
X0075894Y0018900D01*
X0074600Y0017606D01*
X0073900Y0015915D01*
X0073900Y0008085D01*
X0074582Y0006439D01*
X0072410Y0006420D01*
X0073100Y0008085D01*
X0073100Y0015915D01*
X0072400Y0017606D01*
X0071106Y0018900D01*
X0069415Y0019600D01*
X0067585Y0019600D01*
X0065894Y0018900D01*
X0064600Y0017606D01*
X0063900Y0015915D01*
X0063900Y0008085D01*
X0064600Y0006394D01*
X0064645Y0006350D01*
X0062494Y0006331D01*
X0062605Y0006484D01*
X0062948Y0007157D01*
X0063182Y0007876D01*
X0063300Y0008622D01*
X0063300Y0011800D01*
X0058700Y0011800D01*
X0058700Y0012200D01*
X0058300Y0012200D01*
X0058300Y0019800D01*
X0058122Y0019800D01*
X0057376Y0019682D01*
X0056657Y0019448D01*
X0055984Y0019105D01*
X0055373Y0018661D01*
X0054839Y0018127D01*
X0054395Y0017516D01*
X0054052Y0016843D01*
X0053818Y0016124D01*
X0053700Y0015378D01*
X0053700Y0012200D01*
X0058300Y0012200D01*
X0058300Y0011800D01*
X0053700Y0011800D01*
X0053700Y0008622D01*
X0053818Y0007876D01*
X0054052Y0007157D01*
X0054395Y0006484D01*
X0054558Y0006259D01*
X0052244Y0006239D01*
X0052400Y0006394D01*
X0053100Y0008085D01*
X0053100Y0015915D01*
X0052400Y0017606D01*
X0051106Y0018900D01*
X0049415Y0019600D01*
X0049070Y0019600D01*
X0052270Y0022800D01*
X0055240Y0022800D01*
X0057700Y0025260D01*
X0057700Y0028740D01*
X0057540Y0028900D01*
X0069460Y0028900D01*
X0069300Y0028740D01*
X0069300Y0025260D01*
X0071760Y0022800D01*
X0075240Y0022800D01*
X0077700Y0025260D01*
X0077700Y0028740D01*
X0077540Y0028900D01*
X0093370Y0028900D01*
X0094600Y0030130D01*
X0101850Y0037380D01*
X0102525Y0037100D01*
X0104475Y0037100D01*
X0106276Y0037846D01*
X0106400Y0037970D01*
X0106400Y0036030D01*
X0106276Y0036154D01*
X0104475Y0036900D01*
X0102525Y0036900D01*
X0100724Y0036154D01*
X0100139Y0035569D02*
X0100039Y0035569D01*
X0099012Y0033970D02*
X0098440Y0033970D01*
X0098600Y0032372D02*
X0096842Y0032372D01*
X0095243Y0030773D02*
X0098704Y0030773D01*
X0099396Y0029175D02*
X0093645Y0029175D01*
X0098460Y0022781D02*
X0052250Y0022781D01*
X0050652Y0021182D02*
X0084712Y0021182D01*
X0083114Y0019584D02*
X0079455Y0019584D01*
X0077545Y0019584D02*
X0069455Y0019584D01*
X0067545Y0019584D02*
X0059926Y0019584D01*
X0059624Y0019682D02*
X0058878Y0019800D01*
X0058700Y0019800D01*
X0058700Y0012200D01*
X0063300Y0012200D01*
X0063300Y0015378D01*
X0063182Y0016124D01*
X0062948Y0016843D01*
X0062605Y0017516D01*
X0062161Y0018127D01*
X0061627Y0018661D01*
X0061016Y0019105D01*
X0060343Y0019448D01*
X0059624Y0019682D01*
X0058700Y0019584D02*
X0058300Y0019584D01*
X0057074Y0019584D02*
X0049455Y0019584D01*
X0052020Y0017985D02*
X0054736Y0017985D01*
X0053904Y0016387D02*
X0052905Y0016387D01*
X0053100Y0014788D02*
X0053700Y0014788D01*
X0053700Y0013190D02*
X0053100Y0013190D01*
X0053100Y0011591D02*
X0053700Y0011591D01*
X0053700Y0009993D02*
X0053100Y0009993D01*
X0053100Y0008394D02*
X0053736Y0008394D01*
X0054236Y0006796D02*
X0052566Y0006796D01*
X0058300Y0013190D02*
X0058700Y0013190D01*
X0058700Y0014788D02*
X0058300Y0014788D01*
X0058300Y0016387D02*
X0058700Y0016387D01*
X0058700Y0017985D02*
X0058300Y0017985D01*
X0062264Y0017985D02*
X0064980Y0017985D01*
X0064095Y0016387D02*
X0063096Y0016387D01*
X0063300Y0014788D02*
X0063900Y0014788D01*
X0063900Y0013190D02*
X0063300Y0013190D01*
X0063300Y0011591D02*
X0063900Y0011591D01*
X0063900Y0009993D02*
X0063300Y0009993D01*
X0063264Y0008394D02*
X0063900Y0008394D01*
X0064434Y0006796D02*
X0062764Y0006796D01*
X0072020Y0017985D02*
X0074980Y0017985D01*
X0074095Y0016387D02*
X0072905Y0016387D01*
X0073100Y0014788D02*
X0073900Y0014788D01*
X0073900Y0013190D02*
X0073100Y0013190D01*
X0073100Y0011591D02*
X0073900Y0011591D01*
X0073900Y0009993D02*
X0073100Y0009993D01*
X0073100Y0008394D02*
X0073900Y0008394D01*
X0074434Y0006796D02*
X0072566Y0006796D01*
X0070181Y0024379D02*
X0056819Y0024379D01*
X0057700Y0025978D02*
X0069300Y0025978D01*
X0069300Y0027576D02*
X0057700Y0027576D01*
X0059590Y0033970D02*
X0047410Y0033970D01*
X0047700Y0035569D02*
X0059300Y0035569D01*
X0059300Y0037167D02*
X0047700Y0037167D01*
X0046674Y0038766D02*
X0060326Y0038766D01*
X0066484Y0049955D02*
X0070233Y0049955D01*
X0069100Y0048357D02*
X0067700Y0048357D01*
X0067700Y0046758D02*
X0069100Y0046758D01*
X0069118Y0045160D02*
X0067599Y0045160D01*
X0070925Y0040364D02*
X0041955Y0040364D01*
X0043500Y0043561D02*
X0043500Y0043561D01*
X0043500Y0045160D02*
X0043500Y0045160D01*
X0043500Y0046758D02*
X0043500Y0046758D01*
X0046284Y0043561D02*
X0049395Y0043561D01*
X0059830Y0053152D02*
X0076125Y0053152D01*
X0074527Y0054751D02*
X0060678Y0054751D01*
X0061414Y0056349D02*
X0064181Y0056349D01*
X0073500Y0049955D02*
X0073500Y0049955D01*
X0073500Y0048357D02*
X0073500Y0048357D01*
X0078500Y0052600D02*
X0078500Y0057000D01*
X0078500Y0052600D01*
X0078500Y0053152D02*
X0078500Y0053152D01*
X0078500Y0054751D02*
X0078500Y0054751D01*
X0078500Y0056349D02*
X0078500Y0056349D01*
X0078500Y0057000D02*
X0078500Y0057000D01*
X0077700Y0027576D02*
X0101376Y0027576D01*
X0100298Y0025978D02*
X0077700Y0025978D01*
X0076819Y0024379D02*
X0098988Y0024379D01*
X0103300Y0024379D02*
X0103700Y0024379D01*
X0103700Y0022781D02*
X0103300Y0022781D01*
X0103300Y0025978D02*
X0103700Y0025978D01*
X0105624Y0027576D02*
X0106400Y0027576D01*
X0106400Y0037167D02*
X0104637Y0037167D01*
X0102363Y0037167D02*
X0101637Y0037167D01*
X0099842Y0078729D02*
X0097198Y0078729D01*
X0097059Y0103100D02*
X0095540Y0103100D01*
X0097700Y0105260D01*
X0097700Y0108740D01*
X0095240Y0111200D01*
X0091760Y0111200D01*
X0089300Y0108740D01*
X0089300Y0105260D01*
X0091460Y0103100D01*
X0075630Y0103100D01*
X0074400Y0101870D01*
X0072996Y0100466D01*
X0073133Y0100888D01*
X0073250Y0101626D01*
X0073250Y0101825D01*
X0068675Y0101825D01*
X0068675Y0102175D01*
X0073250Y0102175D01*
X0073250Y0102374D01*
X0073133Y0103112D01*
X0072902Y0103823D01*
X0072563Y0104490D01*
X0072123Y0105094D01*
X0071844Y0105374D01*
X0079370Y0112900D01*
X0080600Y0114130D01*
X0080600Y0117566D01*
X0081276Y0117846D01*
X0082654Y0119224D01*
X0083400Y0121025D01*
X0083400Y0122975D01*
X0082654Y0124776D01*
X0081950Y0125480D01*
X0082370Y0125900D01*
X0087390Y0125900D01*
X0086900Y0124716D01*
X0086900Y0123284D01*
X0087448Y0121961D01*
X0088009Y0121400D01*
X0086677Y0121400D01*
X0084100Y0118823D01*
X0084100Y0117000D01*
X0088500Y0117000D01*
X0092900Y0117000D01*
X0092900Y0118630D01*
X0100904Y0110626D01*
X0099100Y0108823D01*
X0099100Y0107000D01*
X0103500Y0107000D01*
X0103500Y0107000D01*
X0099100Y0107000D01*
X0099100Y0105317D01*
X0098461Y0105052D01*
X0097448Y0104039D01*
X0097059Y0103100D01*
X0096744Y0104305D02*
X0097714Y0104305D01*
X0097700Y0105903D02*
X0099100Y0105903D01*
X0099100Y0107502D02*
X0097700Y0107502D01*
X0097339Y0109100D02*
X0099378Y0109100D01*
X0100831Y0110699D02*
X0095741Y0110699D01*
X0097634Y0113896D02*
X0091618Y0113896D01*
X0092900Y0115177D02*
X0090323Y0112600D01*
X0088500Y0112600D01*
X0088500Y0117000D01*
X0088500Y0117000D01*
X0092900Y0117000D01*
X0092900Y0115177D01*
X0092900Y0115494D02*
X0096036Y0115494D01*
X0094437Y0117093D02*
X0092900Y0117093D01*
X0088500Y0117000D02*
X0088500Y0117000D01*
X0088500Y0117000D01*
X0088500Y0112600D01*
X0086677Y0112600D01*
X0084100Y0115177D01*
X0084100Y0117000D01*
X0088500Y0117000D01*
X0088500Y0115494D02*
X0088500Y0115494D01*
X0088500Y0113896D02*
X0088500Y0113896D01*
X0091259Y0110699D02*
X0077169Y0110699D01*
X0078767Y0112297D02*
X0099233Y0112297D01*
X0094100Y0123370D02*
X0094100Y0123370D01*
X0094100Y0124716D01*
X0093552Y0126039D01*
X0093530Y0126061D01*
X0094600Y0127130D01*
X0094600Y0135506D01*
X0094961Y0134635D01*
X0096135Y0133461D01*
X0097670Y0132825D01*
X0099330Y0132825D01*
X0100865Y0133461D01*
X0102039Y0134635D01*
X0102675Y0136170D01*
X0102675Y0137512D01*
X0102950Y0136846D01*
X0104343Y0135454D01*
X0106162Y0134700D01*
X0108131Y0134700D01*
X0109901Y0135433D01*
X0109901Y0126200D01*
X0106760Y0126200D01*
X0105015Y0124455D01*
X0102100Y0127370D01*
X0102100Y0128716D01*
X0101552Y0130039D01*
X0100539Y0131052D01*
X0099216Y0131600D01*
X0097784Y0131600D01*
X0096461Y0131052D01*
X0095448Y0130039D01*
X0094900Y0128716D01*
X0094900Y0127284D01*
X0095448Y0125961D01*
X0095843Y0125566D01*
X0094100Y0123823D01*
X0094100Y0123370D01*
X0094100Y0123487D02*
X0094100Y0123487D01*
X0093947Y0125085D02*
X0095363Y0125085D01*
X0095149Y0126684D02*
X0094154Y0126684D01*
X0094600Y0128282D02*
X0094900Y0128282D01*
X0094600Y0129881D02*
X0095382Y0129881D01*
X0094600Y0131479D02*
X0097493Y0131479D01*
X0097059Y0133078D02*
X0094600Y0133078D01*
X0094600Y0134676D02*
X0094944Y0134676D01*
X0090400Y0132960D02*
X0090400Y0130100D01*
X0083017Y0130100D01*
X0083400Y0131025D01*
X0083400Y0132975D01*
X0082654Y0134776D01*
X0081276Y0136154D01*
X0079475Y0136900D01*
X0077525Y0136900D01*
X0075724Y0136154D01*
X0074346Y0134776D01*
X0073600Y0132975D01*
X0073600Y0131025D01*
X0074346Y0129224D01*
X0074470Y0129100D01*
X0072035Y0129100D01*
X0072357Y0129423D01*
X0073050Y0131095D01*
X0073050Y0132905D01*
X0072357Y0134577D01*
X0071077Y0135857D01*
X0069405Y0136550D01*
X0067595Y0136550D01*
X0065923Y0135857D01*
X0064643Y0134577D01*
X0063950Y0132905D01*
X0063950Y0131095D01*
X0064643Y0129423D01*
X0064965Y0129100D01*
X0064370Y0129100D01*
X0060600Y0132870D01*
X0059370Y0134100D01*
X0044691Y0134100D01*
X0045552Y0134961D01*
X0046100Y0136284D01*
X0046100Y0137716D01*
X0045552Y0139039D01*
X0044539Y0140052D01*
X0043216Y0140600D01*
X0042845Y0140600D01*
X0043050Y0141095D01*
X0043050Y0142905D01*
X0042852Y0143382D01*
X0044370Y0144900D01*
X0064965Y0144900D01*
X0064643Y0144577D01*
X0063950Y0142905D01*
X0063950Y0141095D01*
X0064643Y0139423D01*
X0065923Y0138143D01*
X0067595Y0137450D01*
X0069405Y0137450D01*
X0071077Y0138143D01*
X0072357Y0139423D01*
X0073050Y0141095D01*
X0073050Y0142900D01*
X0073600Y0142900D01*
X0073600Y0141025D01*
X0074346Y0139224D01*
X0075724Y0137846D01*
X0077525Y0137100D01*
X0079475Y0137100D01*
X0081276Y0137846D01*
X0082654Y0139224D01*
X0083400Y0141025D01*
X0083400Y0142975D01*
X0082654Y0144776D01*
X0082530Y0144900D01*
X0083370Y0144900D01*
X0084100Y0145630D01*
X0084100Y0145177D01*
X0086677Y0142600D01*
X0088500Y0142600D01*
X0090323Y0142600D01*
X0092900Y0145177D01*
X0092900Y0147000D01*
X0092900Y0148823D01*
X0090823Y0150900D01*
X0097006Y0150900D01*
X0096135Y0150539D01*
X0094961Y0149365D01*
X0094325Y0147830D01*
X0094325Y0146170D01*
X0094435Y0145905D01*
X0089730Y0141200D01*
X0086760Y0141200D01*
X0084300Y0138740D01*
X0084300Y0135260D01*
X0086760Y0132800D01*
X0090240Y0132800D01*
X0090400Y0132960D01*
X0090400Y0131479D02*
X0083400Y0131479D01*
X0083357Y0133078D02*
X0086482Y0133078D01*
X0084884Y0134676D02*
X0082695Y0134676D01*
X0084300Y0136275D02*
X0080984Y0136275D01*
X0081303Y0137873D02*
X0084300Y0137873D01*
X0085032Y0139472D02*
X0082757Y0139472D01*
X0083400Y0141070D02*
X0086631Y0141070D01*
X0086608Y0142669D02*
X0083400Y0142669D01*
X0082864Y0144268D02*
X0085010Y0144268D01*
X0088500Y0144268D02*
X0088500Y0144268D01*
X0088500Y0145866D02*
X0088500Y0145866D01*
X0088500Y0147000D02*
X0088500Y0142600D01*
X0088500Y0147000D01*
X0092900Y0147000D01*
X0088500Y0147000D01*
X0088500Y0147000D01*
X0088500Y0147000D01*
X0088500Y0142669D02*
X0088500Y0142669D01*
X0090392Y0142669D02*
X0091199Y0142669D01*
X0091990Y0144268D02*
X0092798Y0144268D01*
X0092900Y0145866D02*
X0094396Y0145866D01*
X0094325Y0147465D02*
X0092900Y0147465D01*
X0092659Y0149063D02*
X0094836Y0149063D01*
X0096431Y0150662D02*
X0091061Y0150662D01*
X0099994Y0150900D02*
X0102509Y0150900D01*
X0103461Y0149948D01*
X0104067Y0149697D01*
X0103574Y0149367D01*
X0102627Y0147946D01*
X0102039Y0149365D01*
X0100865Y0150539D01*
X0099994Y0150900D01*
X0100569Y0150662D02*
X0102747Y0150662D01*
X0102164Y0149063D02*
X0103372Y0149063D01*
X0103522Y0136275D02*
X0102675Y0136275D01*
X0102056Y0134676D02*
X0109901Y0134676D01*
X0109901Y0133078D02*
X0099941Y0133078D01*
X0099507Y0131479D02*
X0109901Y0131479D01*
X0109901Y0129881D02*
X0101618Y0129881D01*
X0102100Y0128282D02*
X0109901Y0128282D01*
X0109901Y0126684D02*
X0102786Y0126684D01*
X0104384Y0125085D02*
X0105646Y0125085D01*
X0089661Y0109100D02*
X0075570Y0109100D01*
X0073972Y0107502D02*
X0089300Y0107502D01*
X0089300Y0105903D02*
X0072373Y0105903D01*
X0072657Y0104305D02*
X0090256Y0104305D01*
X0085382Y0113896D02*
X0080366Y0113896D01*
X0079370Y0112900D02*
X0079370Y0112900D01*
X0080600Y0115494D02*
X0084100Y0115494D01*
X0084100Y0117093D02*
X0080600Y0117093D01*
X0082121Y0118691D02*
X0084100Y0118691D01*
X0083095Y0120290D02*
X0085567Y0120290D01*
X0087520Y0121888D02*
X0083400Y0121888D01*
X0083188Y0123487D02*
X0086900Y0123487D01*
X0087053Y0125085D02*
X0082344Y0125085D01*
X0076016Y0136275D02*
X0070069Y0136275D01*
X0070427Y0137873D02*
X0075697Y0137873D01*
X0074243Y0139472D02*
X0072378Y0139472D01*
X0073040Y0141070D02*
X0073600Y0141070D01*
X0073600Y0142669D02*
X0073050Y0142669D01*
X0072258Y0134676D02*
X0074305Y0134676D01*
X0073643Y0133078D02*
X0072978Y0133078D01*
X0073050Y0131479D02*
X0073600Y0131479D01*
X0074074Y0129881D02*
X0072547Y0129881D01*
X0066931Y0136275D02*
X0046096Y0136275D01*
X0046035Y0137873D02*
X0066573Y0137873D01*
X0064622Y0139472D02*
X0045119Y0139472D01*
X0043040Y0141070D02*
X0063960Y0141070D01*
X0063950Y0142669D02*
X0043050Y0142669D01*
X0043737Y0144268D02*
X0064514Y0144268D01*
X0064742Y0134676D02*
X0045268Y0134676D01*
X0060392Y0133078D02*
X0064022Y0133078D01*
X0063950Y0131479D02*
X0061990Y0131479D01*
X0063589Y0129881D02*
X0064453Y0129881D01*
X0073197Y0102706D02*
X0075236Y0102706D01*
X0073638Y0101108D02*
X0073168Y0101108D01*
X0061390Y0165100D02*
X0045370Y0165100D01*
X0041702Y0168768D01*
X0042357Y0169423D01*
X0043050Y0171095D01*
X0043050Y0172905D01*
X0042357Y0174577D01*
X0041077Y0175857D01*
X0039405Y0176550D01*
X0037595Y0176550D01*
X0035923Y0175857D01*
X0034643Y0174577D01*
X0033950Y0172905D01*
X0033950Y0171095D01*
X0034643Y0169423D01*
X0035298Y0168768D01*
X0031300Y0164770D01*
X0031300Y0199360D01*
X0032700Y0200760D01*
X0032700Y0204240D01*
X0030240Y0206700D01*
X0027770Y0206700D01*
X0026600Y0207870D01*
X0025370Y0209100D01*
X0017340Y0209100D01*
X0015240Y0211200D01*
X0011760Y0211200D01*
X0009300Y0208740D01*
X0009300Y0205260D01*
X0011760Y0202800D01*
X0015240Y0202800D01*
X0017340Y0204900D01*
X0023630Y0204900D01*
X0024300Y0204230D01*
X0024300Y0201800D01*
X0012195Y0201800D01*
X0012036Y0201959D01*
X0011929Y0202066D01*
X0011929Y0202066D01*
X0011549Y0202446D01*
X0010537Y0203459D01*
X0009934Y0203708D01*
X0008717Y0204212D01*
X0008300Y0204212D01*
X0008300Y0227161D01*
X0009100Y0227161D01*
X0009100Y0227000D01*
X0013500Y0227000D01*
X0017900Y0227000D01*
X0017900Y0227161D01*
X0032765Y0227161D01*
X0032765Y0200936D01*
X0033534Y0199080D01*
X0034954Y0197660D01*
X0036810Y0196891D01*
X0063421Y0196891D01*
X0063130Y0196600D01*
X0061784Y0196600D01*
X0060461Y0196052D01*
X0059448Y0195039D01*
X0058900Y0193716D01*
X0058900Y0192284D01*
X0059448Y0190961D01*
X0060461Y0189948D01*
X0061784Y0189400D01*
X0063216Y0189400D01*
X0064442Y0189908D01*
X0064643Y0189423D01*
X0065923Y0188143D01*
X0067595Y0187450D01*
X0069405Y0187450D01*
X0069882Y0187648D01*
X0071400Y0186130D01*
X0072630Y0184900D01*
X0074470Y0184900D01*
X0074346Y0184776D01*
X0073600Y0182975D01*
X0073600Y0181025D01*
X0074346Y0179224D01*
X0074470Y0179100D01*
X0072264Y0179100D01*
X0072563Y0179510D01*
X0072902Y0180177D01*
X0073133Y0180888D01*
X0073250Y0181626D01*
X0073250Y0181825D01*
X0068675Y0181825D01*
X0068675Y0182175D01*
X0068325Y0182175D01*
X0068325Y0186750D01*
X0068126Y0186750D01*
X0067388Y0186633D01*
X0066677Y0186402D01*
X0066010Y0186063D01*
X0065406Y0185623D01*
X0064877Y0185094D01*
X0064437Y0184490D01*
X0064098Y0183823D01*
X0063867Y0183112D01*
X0063750Y0182374D01*
X0063750Y0182175D01*
X0068325Y0182175D01*
X0068325Y0181825D01*
X0063750Y0181825D01*
X0063750Y0181626D01*
X0063867Y0180888D01*
X0064098Y0180177D01*
X0064437Y0179510D01*
X0064736Y0179100D01*
X0044370Y0179100D01*
X0042852Y0180618D01*
X0043050Y0181095D01*
X0043050Y0182905D01*
X0042357Y0184577D01*
X0041077Y0185857D01*
X0039405Y0186550D01*
X0037595Y0186550D01*
X0035923Y0185857D01*
X0034643Y0184577D01*
X0033950Y0182905D01*
X0033950Y0181095D01*
X0034643Y0179423D01*
X0035923Y0178143D01*
X0037595Y0177450D01*
X0039405Y0177450D01*
X0039882Y0177648D01*
X0042630Y0174900D01*
X0064965Y0174900D01*
X0064643Y0174577D01*
X0063950Y0172905D01*
X0063950Y0171095D01*
X0064155Y0170600D01*
X0063784Y0170600D01*
X0062461Y0170052D01*
X0061448Y0169039D01*
X0060900Y0167716D01*
X0060900Y0166284D01*
X0061390Y0165100D01*
X0060900Y0166647D02*
X0043823Y0166647D01*
X0042225Y0168245D02*
X0061119Y0168245D01*
X0062253Y0169844D02*
X0042532Y0169844D01*
X0043050Y0171442D02*
X0063950Y0171442D01*
X0064006Y0173041D02*
X0042994Y0173041D01*
X0042295Y0174639D02*
X0064705Y0174639D01*
X0064492Y0179435D02*
X0044035Y0179435D01*
X0043024Y0181033D02*
X0063844Y0181033D01*
X0063791Y0182632D02*
X0043050Y0182632D01*
X0042501Y0184230D02*
X0064305Y0184230D01*
X0065689Y0185829D02*
X0041106Y0185829D01*
X0042113Y0187450D02*
X0043050Y0188387D01*
X0043050Y0195613D01*
X0042113Y0196550D01*
X0034887Y0196550D01*
X0033950Y0195613D01*
X0033950Y0188387D01*
X0034887Y0187450D01*
X0042113Y0187450D01*
X0043050Y0189026D02*
X0065039Y0189026D01*
X0068325Y0185829D02*
X0068675Y0185829D01*
X0068675Y0186750D02*
X0068675Y0182175D01*
X0073250Y0182175D01*
X0073250Y0182374D01*
X0073133Y0183112D01*
X0072902Y0183823D01*
X0072563Y0184490D01*
X0072123Y0185094D01*
X0071594Y0185623D01*
X0070990Y0186063D01*
X0070323Y0186402D01*
X0069612Y0186633D01*
X0068874Y0186750D01*
X0068675Y0186750D01*
X0070103Y0187427D02*
X0031300Y0187427D01*
X0031300Y0185829D02*
X0035894Y0185829D01*
X0034499Y0184230D02*
X0031300Y0184230D01*
X0031300Y0182632D02*
X0033950Y0182632D01*
X0033976Y0181033D02*
X0031300Y0181033D01*
X0031300Y0179435D02*
X0034638Y0179435D01*
X0036662Y0177836D02*
X0031300Y0177836D01*
X0031300Y0176238D02*
X0036841Y0176238D01*
X0034705Y0174639D02*
X0031300Y0174639D01*
X0031300Y0173041D02*
X0034006Y0173041D01*
X0033950Y0171442D02*
X0031300Y0171442D01*
X0031300Y0169844D02*
X0034468Y0169844D01*
X0034775Y0168245D02*
X0031300Y0168245D01*
X0031300Y0166647D02*
X0033177Y0166647D01*
X0031578Y0165048D02*
X0031300Y0165048D01*
X0040159Y0176238D02*
X0041292Y0176238D01*
X0043050Y0190624D02*
X0059784Y0190624D01*
X0058925Y0192223D02*
X0043050Y0192223D01*
X0043050Y0193821D02*
X0058944Y0193821D01*
X0059829Y0195420D02*
X0043050Y0195420D01*
X0036503Y0197018D02*
X0031300Y0197018D01*
X0031300Y0195420D02*
X0033950Y0195420D01*
X0033950Y0193821D02*
X0031300Y0193821D01*
X0031300Y0192223D02*
X0033950Y0192223D01*
X0033950Y0190624D02*
X0031300Y0190624D01*
X0031300Y0189026D02*
X0033950Y0189026D01*
X0033997Y0198617D02*
X0031300Y0198617D01*
X0032155Y0200215D02*
X0033064Y0200215D01*
X0032765Y0201814D02*
X0032700Y0201814D01*
X0032700Y0203412D02*
X0032765Y0203412D01*
X0032765Y0205011D02*
X0031929Y0205011D01*
X0032765Y0206609D02*
X0030330Y0206609D01*
X0032765Y0208208D02*
X0026262Y0208208D01*
X0024300Y0203412D02*
X0015852Y0203412D01*
X0012181Y0201814D02*
X0024300Y0201814D01*
X0016633Y0209806D02*
X0032765Y0209806D01*
X0032765Y0211405D02*
X0008300Y0211405D01*
X0008300Y0213003D02*
X0032765Y0213003D01*
X0032765Y0214602D02*
X0008300Y0214602D01*
X0008300Y0216201D02*
X0032765Y0216201D01*
X0032765Y0217799D02*
X0008300Y0217799D01*
X0008300Y0219398D02*
X0025663Y0219398D01*
X0026760Y0218300D02*
X0030240Y0218300D01*
X0032700Y0220760D01*
X0032700Y0224240D01*
X0030240Y0226700D01*
X0026760Y0226700D01*
X0024300Y0224240D01*
X0024300Y0220760D01*
X0026760Y0218300D01*
X0024300Y0220996D02*
X0008300Y0220996D01*
X0008300Y0222595D02*
X0024300Y0222595D01*
X0024300Y0224193D02*
X0016916Y0224193D01*
X0017900Y0225177D02*
X0015323Y0222600D01*
X0013500Y0222600D01*
X0013500Y0227000D01*
X0013500Y0227000D01*
X0017900Y0227000D01*
X0017900Y0225177D01*
X0017900Y0225792D02*
X0025852Y0225792D01*
X0031148Y0225792D02*
X0032765Y0225792D01*
X0032765Y0224193D02*
X0032700Y0224193D01*
X0032700Y0222595D02*
X0032765Y0222595D01*
X0032765Y0220996D02*
X0032700Y0220996D01*
X0032765Y0219398D02*
X0031337Y0219398D01*
X0013500Y0222600D02*
X0013500Y0227000D01*
X0013500Y0227000D01*
X0013500Y0227000D01*
X0009100Y0227000D01*
X0009100Y0225177D01*
X0011677Y0222600D01*
X0013500Y0222600D01*
X0013500Y0224193D02*
X0013500Y0224193D01*
X0013500Y0225792D02*
X0013500Y0225792D01*
X0010084Y0224193D02*
X0008300Y0224193D01*
X0008300Y0225792D02*
X0009100Y0225792D01*
X0008300Y0209806D02*
X0010367Y0209806D01*
X0009300Y0208208D02*
X0008300Y0208208D01*
X0008300Y0206609D02*
X0009300Y0206609D01*
X0009549Y0205011D02*
X0008300Y0205011D01*
X0008717Y0204212D02*
X0008717Y0204212D01*
X0008717Y0204212D01*
X0010537Y0203459D02*
X0010537Y0203459D01*
X0010537Y0203459D01*
X0010583Y0203412D02*
X0011148Y0203412D01*
X0024600Y0123487D02*
X0025574Y0123487D01*
X0010622Y0057948D02*
X0010600Y0057948D01*
X0010600Y0056349D02*
X0011196Y0056349D01*
X0072508Y0179435D02*
X0074259Y0179435D01*
X0073600Y0181033D02*
X0073156Y0181033D01*
X0073209Y0182632D02*
X0073600Y0182632D01*
X0074120Y0184230D02*
X0072695Y0184230D01*
X0071701Y0185829D02*
X0071311Y0185829D01*
X0068675Y0184230D02*
X0068325Y0184230D01*
X0068325Y0182632D02*
X0068675Y0182632D01*
X0074133Y0189337D02*
X0072852Y0190618D01*
X0073050Y0191095D01*
X0073050Y0192905D01*
X0072357Y0194577D01*
X0072035Y0194900D01*
X0074303Y0194900D01*
X0074138Y0194673D01*
X0073774Y0193958D01*
X0073526Y0193194D01*
X0073400Y0192401D01*
X0073400Y0192200D01*
X0078300Y0192200D01*
X0078300Y0191800D01*
X0073400Y0191800D01*
X0073400Y0191599D01*
X0073526Y0190806D01*
X0073774Y0190042D01*
X0074133Y0189337D01*
X0073585Y0190624D02*
X0072855Y0190624D01*
X0073050Y0192223D02*
X0073400Y0192223D01*
X0073729Y0193821D02*
X0072670Y0193821D01*
X0082235Y0206958D02*
X0082235Y0222325D01*
X0084260Y0220300D01*
X0087740Y0220300D01*
X0089340Y0221900D01*
X0094325Y0221900D01*
X0094325Y0221170D01*
X0094961Y0219635D01*
X0096135Y0218461D01*
X0097670Y0217825D01*
X0099330Y0217825D01*
X0100865Y0218461D01*
X0102039Y0219635D01*
X0102197Y0220016D01*
X0102197Y0214849D01*
X0102552Y0213992D01*
X0102373Y0213559D01*
X0102039Y0214365D01*
X0100865Y0215539D01*
X0099330Y0216175D01*
X0097670Y0216175D01*
X0096135Y0215539D01*
X0094961Y0214365D01*
X0094325Y0212830D01*
X0094325Y0211170D01*
X0094961Y0209635D01*
X0096135Y0208461D01*
X0097670Y0207825D01*
X0099330Y0207825D01*
X0100865Y0208461D01*
X0102039Y0209635D01*
X0102435Y0210591D01*
X0102950Y0209346D01*
X0104343Y0207954D01*
X0106162Y0207200D01*
X0109901Y0207200D01*
X0109901Y0203118D01*
X0109865Y0203118D01*
X0109616Y0203015D01*
X0109366Y0203118D01*
X0106779Y0203118D01*
X0104960Y0202365D01*
X0104343Y0201747D01*
X0102950Y0200355D01*
X0102290Y0198760D01*
X0102039Y0199365D01*
X0100865Y0200539D01*
X0099330Y0201175D01*
X0097670Y0201175D01*
X0096135Y0200539D01*
X0094961Y0199365D01*
X0094851Y0199100D01*
X0092340Y0199100D01*
X0090240Y0201200D01*
X0088923Y0201200D01*
X0090400Y0202677D01*
X0090400Y0204500D01*
X0090400Y0206323D01*
X0087823Y0208900D01*
X0086000Y0208900D01*
X0086000Y0204500D01*
X0086000Y0204500D01*
X0090400Y0204500D01*
X0086000Y0204500D01*
X0086000Y0204500D01*
X0086000Y0208900D01*
X0084177Y0208900D01*
X0082235Y0206958D01*
X0082235Y0208208D02*
X0083485Y0208208D01*
X0082235Y0209806D02*
X0094890Y0209806D01*
X0094325Y0211405D02*
X0082235Y0211405D01*
X0082235Y0213003D02*
X0094397Y0213003D01*
X0095198Y0214602D02*
X0082235Y0214602D01*
X0082235Y0216201D02*
X0102197Y0216201D01*
X0102197Y0217799D02*
X0082235Y0217799D01*
X0082235Y0219398D02*
X0095198Y0219398D01*
X0094397Y0220996D02*
X0088436Y0220996D01*
X0083564Y0220996D02*
X0082235Y0220996D01*
X0086000Y0208208D02*
X0086000Y0208208D01*
X0086000Y0206609D02*
X0086000Y0206609D01*
X0086000Y0205011D02*
X0086000Y0205011D01*
X0088515Y0208208D02*
X0096745Y0208208D01*
X0100254Y0208208D02*
X0104089Y0208208D01*
X0102760Y0209806D02*
X0102110Y0209806D01*
X0102299Y0214602D02*
X0101802Y0214602D01*
X0101802Y0219398D02*
X0102197Y0219398D01*
X0109901Y0206609D02*
X0090113Y0206609D01*
X0090400Y0205011D02*
X0109901Y0205011D01*
X0109901Y0203412D02*
X0090400Y0203412D01*
X0089536Y0201814D02*
X0104409Y0201814D01*
X0102893Y0200215D02*
X0101189Y0200215D01*
X0095811Y0200215D02*
X0091224Y0200215D01*
X0102039Y0184635D02*
X0100865Y0183461D01*
X0100208Y0183189D01*
X0100539Y0183052D01*
X0101552Y0182039D01*
X0102100Y0180716D01*
X0102100Y0179284D01*
X0101552Y0177961D01*
X0100539Y0176948D01*
X0099216Y0176400D01*
X0097784Y0176400D01*
X0096461Y0176948D01*
X0095448Y0177961D01*
X0095186Y0178594D01*
X0094539Y0177948D01*
X0093216Y0177400D01*
X0092900Y0177400D01*
X0092900Y0177000D01*
X0088500Y0177000D01*
X0088500Y0177000D01*
X0092900Y0177000D01*
X0092900Y0175177D01*
X0092323Y0174600D01*
X0093216Y0174600D01*
X0094539Y0174052D01*
X0094746Y0173845D01*
X0094961Y0174365D01*
X0096135Y0175539D01*
X0097670Y0176175D01*
X0099330Y0176175D01*
X0100865Y0175539D01*
X0102039Y0174365D01*
X0102627Y0172946D01*
X0103574Y0174367D01*
X0105211Y0175463D01*
X0107142Y0175849D01*
X0108998Y0175482D01*
X0109901Y0175660D01*
X0109901Y0179700D01*
X0106162Y0179700D01*
X0104343Y0180454D01*
X0102950Y0181846D01*
X0102197Y0183665D01*
X0102197Y0185016D01*
X0102039Y0184635D01*
X0102197Y0184230D02*
X0101634Y0184230D01*
X0100959Y0182632D02*
X0102625Y0182632D01*
X0101969Y0181033D02*
X0103763Y0181033D01*
X0102100Y0179435D02*
X0109901Y0179435D01*
X0109901Y0177836D02*
X0101427Y0177836D01*
X0101765Y0174639D02*
X0103981Y0174639D01*
X0102690Y0173041D02*
X0102588Y0173041D01*
X0109901Y0176238D02*
X0092900Y0176238D01*
X0092362Y0174639D02*
X0095235Y0174639D01*
X0095573Y0177836D02*
X0094269Y0177836D01*
X0088500Y0177000D02*
X0088500Y0177000D01*
X0084100Y0177000D01*
X0084100Y0177630D01*
X0082600Y0176130D01*
X0081950Y0175480D01*
X0082654Y0174776D01*
X0082934Y0174100D01*
X0085177Y0174100D01*
X0084100Y0175177D01*
X0084100Y0177000D01*
X0088500Y0177000D01*
X0084100Y0176238D02*
X0082708Y0176238D01*
X0082711Y0174639D02*
X0084638Y0174639D01*
M02*
