G75*
%MOIN*%
%OFA0B0*%
%FSLAX25Y25*%
%IPPOS*%
%LPD*%
%AMOC8*
5,1,8,0,0,1.08239X$1,22.5*
%
%ADD10R,0.06000X0.06000*%
%ADD11C,0.06600*%
%ADD12R,0.06600X0.06600*%
%ADD13OC8,0.05200*%
%ADD14R,0.05900X0.05900*%
%ADD15C,0.05900*%
%ADD16C,0.07087*%
%ADD17C,0.00500*%
%ADD18C,0.05150*%
%ADD19C,0.07874*%
%ADD20C,0.08661*%
%ADD21C,0.06000*%
%ADD22C,0.01000*%
%ADD23C,0.04000*%
%ADD24C,0.03962*%
%ADD25C,0.01600*%
D10*
X0013500Y0092000D03*
D11*
X0013500Y0082000D03*
X0013500Y0072000D03*
X0013500Y0062000D03*
X0013500Y0052000D03*
X0013500Y0042000D03*
X0013500Y0032000D03*
X0013500Y0022000D03*
X0078500Y0122000D03*
X0078500Y0132000D03*
X0078500Y0142000D03*
X0078500Y0152000D03*
X0078500Y0162000D03*
X0078500Y0172000D03*
X0078500Y0182000D03*
X0078500Y0192000D03*
X0103500Y0082000D03*
X0103500Y0072000D03*
X0103500Y0062000D03*
X0103500Y0052000D03*
X0103500Y0042000D03*
X0103500Y0032000D03*
X0103500Y0022000D03*
D12*
X0103500Y0092000D03*
D13*
X0103500Y0107000D03*
X0098500Y0122000D03*
X0093500Y0107000D03*
X0088500Y0117000D03*
X0088500Y0137000D03*
X0088500Y0147000D03*
X0088500Y0167000D03*
X0088500Y0177000D03*
X0088500Y0197000D03*
X0086000Y0204500D03*
X0086000Y0224500D03*
X0108500Y0122000D03*
X0078500Y0077000D03*
X0078500Y0057000D03*
X0073500Y0047000D03*
X0073500Y0037000D03*
X0073500Y0027000D03*
X0063500Y0036000D03*
X0063500Y0047000D03*
X0053500Y0027000D03*
X0043500Y0036000D03*
X0043500Y0047000D03*
X0027500Y0041000D03*
X0027500Y0033000D03*
X0027500Y0023000D03*
X0027500Y0061000D03*
X0027500Y0068000D03*
X0027500Y0088000D03*
X0027500Y0096000D03*
X0027500Y0106000D03*
X0031000Y0115000D03*
X0032000Y0128000D03*
X0031500Y0141000D03*
X0031000Y0152000D03*
X0012000Y0128000D03*
X0011500Y0141000D03*
X0011000Y0152000D03*
X0011000Y0115000D03*
X0028500Y0202500D03*
X0028500Y0222500D03*
X0013500Y0227000D03*
X0013500Y0207000D03*
D14*
X0038500Y0192000D03*
D15*
X0038500Y0182000D03*
X0038500Y0172000D03*
X0038500Y0162000D03*
X0038500Y0152000D03*
X0038500Y0142000D03*
X0038500Y0132000D03*
X0038500Y0122000D03*
X0038500Y0112000D03*
X0038500Y0102000D03*
X0038500Y0092000D03*
X0038500Y0082000D03*
X0038500Y0072000D03*
X0038500Y0062000D03*
X0068500Y0062000D03*
X0068500Y0072000D03*
X0068500Y0082000D03*
X0068500Y0092000D03*
X0068500Y0102000D03*
X0068500Y0112000D03*
X0068500Y0122000D03*
X0068500Y0132000D03*
X0068500Y0142000D03*
X0068500Y0152000D03*
X0068500Y0162000D03*
X0068500Y0172000D03*
X0068500Y0182000D03*
X0068500Y0192000D03*
D16*
X0021000Y0189000D03*
X0021000Y0170000D03*
D17*
X0044251Y0056254D02*
X0042750Y0054753D01*
X0044251Y0056254D02*
X0044251Y0051750D01*
X0042750Y0051750D02*
X0045753Y0051750D01*
X0047354Y0052501D02*
X0050356Y0055503D01*
X0050356Y0052501D01*
X0049606Y0051750D01*
X0048105Y0051750D01*
X0047354Y0052501D01*
X0047354Y0055503D01*
X0048105Y0056254D01*
X0049606Y0056254D01*
X0050356Y0055503D01*
X0051958Y0054753D02*
X0051958Y0052501D01*
X0052708Y0051750D01*
X0054960Y0051750D01*
X0054960Y0054753D01*
X0056562Y0054002D02*
X0058063Y0054002D01*
X0056562Y0051750D02*
X0056562Y0056254D01*
X0059564Y0056254D01*
D18*
X0078500Y0087000D03*
X0078500Y0097000D03*
X0098500Y0137000D03*
X0098500Y0147000D03*
X0098500Y0162000D03*
X0098500Y0172000D03*
X0098500Y0187000D03*
X0098500Y0197000D03*
X0098500Y0212000D03*
X0098500Y0222000D03*
D19*
X0073756Y0211587D03*
X0043244Y0211587D03*
D20*
X0043835Y0226547D03*
X0073165Y0226547D03*
D21*
X0068500Y0015000D02*
X0068500Y0009000D01*
X0058500Y0009000D02*
X0058500Y0015000D01*
X0048500Y0015000D02*
X0048500Y0009000D01*
X0038500Y0009000D02*
X0038500Y0015000D01*
X0078500Y0015000D02*
X0078500Y0009000D01*
X0088500Y0009000D02*
X0088500Y0015000D01*
D22*
X0033500Y0017000D02*
X0008500Y0017000D01*
X0008500Y0037000D01*
X0013500Y0042000D01*
X0018500Y0037000D02*
X0013500Y0032000D01*
X0018500Y0037000D02*
X0023500Y0037000D01*
X0023500Y0064000D01*
X0027500Y0068000D01*
X0031500Y0072000D01*
X0038500Y0072000D01*
X0036500Y0067000D02*
X0031500Y0062000D01*
X0031500Y0041000D01*
X0027500Y0041000D01*
X0023500Y0037000D02*
X0042500Y0037000D01*
X0043500Y0036000D01*
X0053500Y0036000D01*
X0057500Y0032000D01*
X0083500Y0032000D01*
X0089500Y0038000D01*
X0083500Y0042000D02*
X0103500Y0042000D01*
X0097500Y0046000D02*
X0103500Y0052000D01*
X0097500Y0046000D02*
X0078500Y0046000D01*
X0073500Y0041000D01*
X0035500Y0041000D01*
X0043500Y0047000D02*
X0047500Y0043000D01*
X0069500Y0043000D01*
X0073500Y0047000D01*
X0073500Y0037000D02*
X0064500Y0037000D01*
X0063500Y0036000D01*
X0068500Y0022000D02*
X0103500Y0022000D01*
X0081500Y0071000D02*
X0082500Y0072000D01*
X0103500Y0072000D01*
X0103500Y0082000D02*
X0074500Y0082000D01*
X0074500Y0071000D01*
X0070500Y0067000D01*
X0066500Y0067000D01*
X0064500Y0065000D01*
X0041500Y0065000D01*
X0038500Y0062000D01*
X0036500Y0067000D02*
X0059500Y0067000D01*
X0061500Y0069000D01*
X0068500Y0072000D02*
X0063500Y0077000D01*
X0025500Y0077000D01*
X0020500Y0072000D01*
X0013500Y0072000D01*
X0008500Y0074000D02*
X0011500Y0077000D01*
X0022500Y0077000D01*
X0032500Y0087000D01*
X0040500Y0087000D01*
X0042500Y0085000D01*
X0065500Y0085000D01*
X0068500Y0082000D01*
X0070500Y0087000D02*
X0043500Y0087000D01*
X0038500Y0092000D01*
X0042500Y0097000D02*
X0047500Y0092000D01*
X0068500Y0092000D01*
X0070500Y0087000D02*
X0074500Y0091000D01*
X0078500Y0091000D01*
X0078500Y0097000D01*
X0076500Y0101000D02*
X0085500Y0101000D01*
X0099500Y0087000D01*
X0107500Y0087000D01*
X0109500Y0089000D01*
X0109500Y0122000D01*
X0108500Y0122000D01*
X0107500Y0118000D02*
X0106500Y0118000D01*
X0104500Y0120000D01*
X0104500Y0176000D01*
X0093500Y0176000D01*
X0089500Y0172000D01*
X0078500Y0172000D01*
X0080500Y0167000D02*
X0058500Y0167000D01*
X0043500Y0152000D01*
X0038500Y0152000D01*
X0041500Y0145000D02*
X0064500Y0145000D01*
X0066500Y0147000D01*
X0070500Y0147000D01*
X0075500Y0152000D01*
X0078500Y0152000D01*
X0080500Y0147000D02*
X0086500Y0153000D01*
X0086500Y0158000D01*
X0082500Y0162000D01*
X0078500Y0162000D01*
X0080500Y0167000D02*
X0089500Y0158000D01*
X0102500Y0158000D01*
X0102500Y0145000D01*
X0100500Y0143000D01*
X0098500Y0143000D01*
X0098500Y0137000D01*
X0100500Y0131000D02*
X0102500Y0131000D01*
X0102500Y0120000D01*
X0093500Y0111000D01*
X0091500Y0111000D01*
X0087500Y0107000D01*
X0055500Y0107000D01*
X0049500Y0101000D01*
X0045500Y0102000D02*
X0049500Y0106000D01*
X0045500Y0102000D02*
X0045500Y0097000D01*
X0072500Y0097000D01*
X0076500Y0101000D01*
X0081500Y0113000D02*
X0092500Y0113000D01*
X0092500Y0119000D01*
X0090500Y0121000D01*
X0090500Y0126000D01*
X0093500Y0128000D02*
X0091500Y0130000D01*
X0084500Y0130000D01*
X0084500Y0127000D01*
X0059500Y0127000D01*
X0054500Y0122000D01*
X0038500Y0122000D01*
X0026500Y0122000D01*
X0026500Y0106000D01*
X0027500Y0106000D01*
X0031000Y0115000D02*
X0031500Y0115000D01*
X0031500Y0097000D01*
X0042500Y0097000D01*
X0038500Y0082000D02*
X0039500Y0081000D01*
X0049500Y0081000D01*
X0063500Y0117000D02*
X0073500Y0117000D01*
X0078500Y0122000D01*
X0084500Y0127000D02*
X0088500Y0123000D01*
X0088500Y0117000D01*
X0093500Y0128000D02*
X0098500Y0128000D01*
X0098500Y0122000D01*
X0103500Y0107000D02*
X0099500Y0103000D01*
X0069500Y0103000D01*
X0068500Y0102000D01*
X0055500Y0129000D02*
X0051500Y0129000D01*
X0054500Y0125000D02*
X0066500Y0137000D01*
X0070500Y0137000D01*
X0073500Y0140000D01*
X0073500Y0147000D01*
X0080500Y0147000D01*
X0084500Y0147000D02*
X0088500Y0147000D01*
X0084500Y0147000D02*
X0084500Y0130000D01*
X0088500Y0137000D02*
X0098500Y0147000D01*
X0093500Y0167000D02*
X0088500Y0167000D01*
X0093500Y0167000D02*
X0098500Y0172000D01*
X0102500Y0180000D02*
X0100500Y0182000D01*
X0078500Y0182000D01*
X0080500Y0187000D02*
X0051500Y0187000D01*
X0046500Y0182000D01*
X0038500Y0182000D01*
X0033500Y0184000D02*
X0036500Y0187000D01*
X0041500Y0187000D01*
X0051500Y0197000D01*
X0080500Y0197000D01*
X0084500Y0193000D01*
X0092500Y0193000D01*
X0095500Y0191000D02*
X0093500Y0189000D01*
X0087500Y0189000D01*
X0086500Y0190000D01*
X0083500Y0190000D01*
X0080500Y0187000D01*
X0085500Y0186000D02*
X0097500Y0186000D01*
X0098500Y0187000D01*
X0095500Y0191000D02*
X0109500Y0191000D01*
X0109500Y0201000D01*
X0098500Y0212000D01*
X0098500Y0222000D02*
X0096500Y0224000D01*
X0086500Y0224000D01*
X0086000Y0224500D01*
X0086000Y0204500D02*
X0080500Y0199000D01*
X0033500Y0199000D01*
X0033500Y0207000D01*
X0013500Y0227000D01*
X0013500Y0207000D02*
X0024500Y0207000D01*
X0028500Y0203000D01*
X0028500Y0202500D01*
X0031500Y0192000D02*
X0038500Y0192000D01*
X0033500Y0184000D02*
X0033500Y0162000D01*
X0038500Y0162000D01*
X0047500Y0163000D02*
X0038500Y0172000D01*
X0047500Y0163000D02*
X0049500Y0163000D01*
X0053500Y0147000D02*
X0024500Y0147000D01*
X0020500Y0141000D02*
X0031500Y0141000D01*
X0031500Y0152000D02*
X0031000Y0152000D01*
X0031500Y0152000D02*
X0031500Y0192000D01*
X0021000Y0170000D02*
X0020500Y0170000D01*
X0020500Y0141000D01*
X0018500Y0145000D02*
X0018500Y0133000D01*
X0014500Y0132000D02*
X0024500Y0122000D01*
X0026500Y0122000D01*
X0014500Y0132000D02*
X0011500Y0132000D01*
X0011500Y0141000D01*
X0018500Y0145000D02*
X0011500Y0152000D01*
X0011000Y0152000D01*
X0038500Y0142000D02*
X0041500Y0145000D01*
X0038500Y0132000D02*
X0045500Y0125000D01*
X0054500Y0125000D01*
X0055500Y0129000D02*
X0068500Y0142000D01*
X0068500Y0152000D02*
X0073500Y0157000D01*
X0082500Y0157000D01*
X0082500Y0177000D02*
X0073500Y0177000D01*
X0068500Y0172000D01*
X0068500Y0162000D02*
X0053500Y0147000D01*
X0048500Y0189000D02*
X0065500Y0189000D01*
X0068500Y0192000D01*
X0107500Y0118000D02*
X0107500Y0105000D01*
X0105500Y0103000D01*
X0103500Y0103000D01*
X0103500Y0092000D01*
X0068500Y0022000D02*
X0066500Y0020000D01*
X0054500Y0032000D01*
X0026500Y0032000D01*
X0027500Y0033000D01*
X0026500Y0032000D02*
X0016500Y0022000D01*
X0013500Y0022000D01*
X0013500Y0052000D02*
X0008500Y0052000D01*
X0008500Y0074000D01*
X0037500Y0021000D02*
X0033500Y0017000D01*
X0037500Y0021000D02*
X0053500Y0021000D01*
X0051500Y0025000D02*
X0039500Y0025000D01*
X0051500Y0025000D02*
X0053500Y0027000D01*
X0066500Y0020000D02*
X0058500Y0012000D01*
D23*
X0053500Y0021000D03*
X0039500Y0025000D03*
X0035500Y0041000D03*
X0049500Y0081000D03*
X0049500Y0101000D03*
X0049500Y0106000D03*
X0051500Y0129000D03*
X0063500Y0117000D03*
X0081500Y0113000D03*
X0090500Y0126000D03*
X0100500Y0131000D03*
X0082500Y0157000D03*
X0082500Y0177000D03*
X0085500Y0186000D03*
X0092500Y0193000D03*
X0102500Y0180000D03*
X0049500Y0163000D03*
X0048500Y0189000D03*
X0024500Y0147000D03*
X0018500Y0133000D03*
X0061500Y0069000D03*
X0081500Y0071000D03*
X0083500Y0042000D03*
X0089500Y0038000D03*
D24*
X0053500Y0182000D03*
D25*
X0068500Y0182000D01*
X0068325Y0181825D02*
X0068675Y0181825D01*
X0068675Y0182175D01*
X0073250Y0182175D01*
X0073250Y0182374D01*
X0073133Y0183112D01*
X0072902Y0183823D01*
X0072563Y0184490D01*
X0072264Y0184900D01*
X0074470Y0184900D01*
X0074346Y0184776D01*
X0073600Y0182975D01*
X0073600Y0181025D01*
X0074346Y0179224D01*
X0074470Y0179100D01*
X0072630Y0179100D01*
X0069882Y0176352D01*
X0069405Y0176550D01*
X0067595Y0176550D01*
X0065923Y0175857D01*
X0064643Y0174577D01*
X0063950Y0172905D01*
X0063950Y0171095D01*
X0064643Y0169423D01*
X0064965Y0169100D01*
X0057630Y0169100D01*
X0052850Y0164320D01*
X0052552Y0165039D01*
X0051539Y0166052D01*
X0050216Y0166600D01*
X0048784Y0166600D01*
X0047461Y0166052D01*
X0047439Y0166030D01*
X0042852Y0170618D01*
X0043050Y0171095D01*
X0043050Y0172905D01*
X0042357Y0174577D01*
X0041077Y0175857D01*
X0039405Y0176550D01*
X0037595Y0176550D01*
X0035923Y0175857D01*
X0035600Y0175535D01*
X0035600Y0178465D01*
X0035923Y0178143D01*
X0037595Y0177450D01*
X0039405Y0177450D01*
X0041077Y0178143D01*
X0042357Y0179423D01*
X0042555Y0179900D01*
X0047370Y0179900D01*
X0048600Y0181130D01*
X0052370Y0184900D01*
X0064736Y0184900D01*
X0064437Y0184490D01*
X0064098Y0183823D01*
X0063867Y0183112D01*
X0063750Y0182374D01*
X0063750Y0182175D01*
X0068325Y0182175D01*
X0068325Y0181825D01*
X0068325Y0177250D01*
X0068126Y0177250D01*
X0067388Y0177367D01*
X0066677Y0177598D01*
X0066010Y0177937D01*
X0065406Y0178377D01*
X0064877Y0178906D01*
X0064437Y0179510D01*
X0064098Y0180177D01*
X0063867Y0180888D01*
X0063750Y0181626D01*
X0063750Y0181825D01*
X0068325Y0181825D01*
X0068675Y0181825D02*
X0068675Y0177250D01*
X0068874Y0177250D01*
X0069612Y0177367D01*
X0070323Y0177598D01*
X0070990Y0177937D01*
X0071594Y0178377D01*
X0072123Y0178906D01*
X0072563Y0179510D01*
X0072902Y0180177D01*
X0073133Y0180888D01*
X0073250Y0181626D01*
X0073250Y0181825D01*
X0068675Y0181825D01*
X0068675Y0181033D02*
X0068325Y0181033D01*
X0068325Y0179435D02*
X0068675Y0179435D01*
X0068675Y0177836D02*
X0068325Y0177836D01*
X0066841Y0176238D02*
X0040159Y0176238D01*
X0040338Y0177836D02*
X0066209Y0177836D01*
X0064492Y0179435D02*
X0042362Y0179435D01*
X0042295Y0174639D02*
X0064705Y0174639D01*
X0064006Y0173041D02*
X0042994Y0173041D01*
X0043050Y0171442D02*
X0063950Y0171442D01*
X0064468Y0169844D02*
X0043626Y0169844D01*
X0045225Y0168245D02*
X0056775Y0168245D01*
X0055177Y0166647D02*
X0046823Y0166647D01*
X0052543Y0165048D02*
X0053578Y0165048D01*
X0048503Y0181033D02*
X0063844Y0181033D01*
X0063791Y0182632D02*
X0050102Y0182632D01*
X0051700Y0184230D02*
X0064305Y0184230D01*
X0070791Y0177836D02*
X0071366Y0177836D01*
X0072508Y0179435D02*
X0074259Y0179435D01*
X0073600Y0181033D02*
X0073156Y0181033D01*
X0073209Y0182632D02*
X0073600Y0182632D01*
X0074120Y0184230D02*
X0072695Y0184230D01*
X0072035Y0189100D02*
X0072357Y0189423D01*
X0073050Y0191095D01*
X0073050Y0192905D01*
X0072357Y0194577D01*
X0072035Y0194900D01*
X0074303Y0194900D01*
X0074138Y0194673D01*
X0073774Y0193958D01*
X0073526Y0193194D01*
X0073400Y0192401D01*
X0073400Y0192200D01*
X0078300Y0192200D01*
X0078300Y0191800D01*
X0073400Y0191800D01*
X0073400Y0191599D01*
X0073526Y0190806D01*
X0073774Y0190042D01*
X0074138Y0189327D01*
X0074303Y0189100D01*
X0072035Y0189100D01*
X0072855Y0190624D02*
X0073585Y0190624D01*
X0073400Y0192223D02*
X0073050Y0192223D01*
X0072670Y0193821D02*
X0073729Y0193821D01*
X0079190Y0199450D02*
X0081046Y0200219D01*
X0082466Y0201639D01*
X0082517Y0201761D01*
X0084177Y0200100D01*
X0085660Y0200100D01*
X0084300Y0198740D01*
X0084300Y0196170D01*
X0082600Y0197870D01*
X0081370Y0199100D01*
X0050630Y0199100D01*
X0043050Y0191520D01*
X0043050Y0195613D01*
X0042113Y0196550D01*
X0034887Y0196550D01*
X0033950Y0195613D01*
X0033950Y0194100D01*
X0031300Y0194100D01*
X0031300Y0199360D01*
X0032700Y0200760D01*
X0032700Y0204240D01*
X0030240Y0206700D01*
X0027770Y0206700D01*
X0026600Y0207870D01*
X0025370Y0209100D01*
X0017340Y0209100D01*
X0015240Y0211200D01*
X0011760Y0211200D01*
X0009300Y0208740D01*
X0009300Y0205260D01*
X0011760Y0202800D01*
X0015240Y0202800D01*
X0017340Y0204900D01*
X0023630Y0204900D01*
X0024300Y0204230D01*
X0024300Y0201800D01*
X0012195Y0201800D01*
X0012036Y0201959D01*
X0011929Y0202066D01*
X0011929Y0202066D01*
X0011549Y0202446D01*
X0010537Y0203459D01*
X0009934Y0203708D01*
X0008717Y0204212D01*
X0008300Y0204212D01*
X0008300Y0227161D01*
X0009100Y0227161D01*
X0009100Y0227000D01*
X0013500Y0227000D01*
X0017900Y0227000D01*
X0017900Y0227161D01*
X0033765Y0227161D01*
X0033765Y0203495D01*
X0034534Y0201639D01*
X0035954Y0200219D01*
X0037810Y0199450D01*
X0079190Y0199450D01*
X0081037Y0200215D02*
X0084062Y0200215D01*
X0084300Y0198617D02*
X0081853Y0198617D01*
X0083451Y0197018D02*
X0084300Y0197018D01*
X0086000Y0204500D02*
X0086000Y0204500D01*
X0086000Y0204500D01*
X0086000Y0208900D01*
X0087823Y0208900D01*
X0090400Y0206323D01*
X0090400Y0204500D01*
X0086000Y0204500D01*
X0086000Y0208900D01*
X0084177Y0208900D01*
X0083235Y0207958D01*
X0083235Y0221325D01*
X0084260Y0220300D01*
X0087740Y0220300D01*
X0089340Y0221900D01*
X0094325Y0221900D01*
X0094325Y0221170D01*
X0094961Y0219635D01*
X0096135Y0218461D01*
X0097670Y0217825D01*
X0099330Y0217825D01*
X0100865Y0218461D01*
X0102039Y0219635D01*
X0102197Y0220016D01*
X0102197Y0214849D01*
X0102552Y0213992D01*
X0102373Y0213559D01*
X0102039Y0214365D01*
X0100865Y0215539D01*
X0099330Y0216175D01*
X0097670Y0216175D01*
X0096135Y0215539D01*
X0094961Y0214365D01*
X0094325Y0212830D01*
X0094325Y0211170D01*
X0094961Y0209635D01*
X0096135Y0208461D01*
X0097670Y0207825D01*
X0099330Y0207825D01*
X0099595Y0207935D01*
X0105105Y0202425D01*
X0104960Y0202365D01*
X0104343Y0201747D01*
X0102950Y0200355D01*
X0102290Y0198760D01*
X0102039Y0199365D01*
X0100865Y0200539D01*
X0099330Y0201175D01*
X0097670Y0201175D01*
X0096135Y0200539D01*
X0094961Y0199365D01*
X0094325Y0197830D01*
X0094325Y0196170D01*
X0094340Y0196135D01*
X0093216Y0196600D01*
X0092700Y0196600D01*
X0092700Y0198740D01*
X0090240Y0201200D01*
X0088923Y0201200D01*
X0090400Y0202677D01*
X0090400Y0204500D01*
X0086000Y0204500D01*
X0086000Y0205011D02*
X0086000Y0205011D01*
X0086000Y0206609D02*
X0086000Y0206609D01*
X0086000Y0208208D02*
X0086000Y0208208D01*
X0088515Y0208208D02*
X0096745Y0208208D01*
X0094890Y0209806D02*
X0083235Y0209806D01*
X0083235Y0208208D02*
X0083485Y0208208D01*
X0083235Y0211405D02*
X0094325Y0211405D01*
X0094397Y0213003D02*
X0083235Y0213003D01*
X0083235Y0214602D02*
X0095198Y0214602D01*
X0095198Y0219398D02*
X0083235Y0219398D01*
X0083235Y0220996D02*
X0083564Y0220996D01*
X0083235Y0217799D02*
X0102197Y0217799D01*
X0102197Y0216201D02*
X0083235Y0216201D01*
X0088436Y0220996D02*
X0094397Y0220996D01*
X0101802Y0219398D02*
X0102197Y0219398D01*
X0102299Y0214602D02*
X0101802Y0214602D01*
X0100921Y0206609D02*
X0090113Y0206609D01*
X0090400Y0205011D02*
X0102519Y0205011D01*
X0104118Y0203412D02*
X0090400Y0203412D01*
X0089536Y0201814D02*
X0104409Y0201814D01*
X0102893Y0200215D02*
X0101189Y0200215D01*
X0095811Y0200215D02*
X0091224Y0200215D01*
X0092700Y0198617D02*
X0094651Y0198617D01*
X0094325Y0197018D02*
X0092700Y0197018D01*
X0088600Y0155930D02*
X0088630Y0155900D01*
X0100400Y0155900D01*
X0100400Y0150732D01*
X0099330Y0151175D01*
X0097670Y0151175D01*
X0096135Y0150539D01*
X0094961Y0149365D01*
X0094325Y0147830D01*
X0094325Y0146170D01*
X0094435Y0145905D01*
X0089730Y0141200D01*
X0086760Y0141200D01*
X0084300Y0138740D01*
X0084300Y0135260D01*
X0086760Y0132800D01*
X0090240Y0132800D01*
X0092700Y0135260D01*
X0092700Y0138230D01*
X0096400Y0141930D01*
X0096400Y0140649D01*
X0096135Y0140539D01*
X0094961Y0139365D01*
X0094325Y0137830D01*
X0094325Y0136170D01*
X0094961Y0134635D01*
X0096135Y0133461D01*
X0097405Y0132935D01*
X0096900Y0131716D01*
X0096900Y0130284D01*
X0097448Y0128961D01*
X0098461Y0127948D01*
X0099784Y0127400D01*
X0100400Y0127400D01*
X0100400Y0126323D01*
X0100323Y0126400D01*
X0098500Y0126400D01*
X0098500Y0122000D01*
X0098500Y0122000D01*
X0098500Y0122000D01*
X0094100Y0122000D01*
X0094100Y0123823D01*
X0096677Y0126400D01*
X0098500Y0126400D01*
X0098500Y0122000D01*
X0094100Y0122000D01*
X0094100Y0120370D01*
X0093370Y0121100D01*
X0092600Y0121870D01*
X0092600Y0123009D01*
X0093552Y0123961D01*
X0094100Y0125284D01*
X0094100Y0126716D01*
X0093552Y0128039D01*
X0092539Y0129052D01*
X0091216Y0129600D01*
X0089784Y0129600D01*
X0088461Y0129052D01*
X0087448Y0128039D01*
X0086900Y0126716D01*
X0086900Y0125284D01*
X0087448Y0123961D01*
X0088400Y0123009D01*
X0088400Y0121400D01*
X0086677Y0121400D01*
X0084100Y0118823D01*
X0084100Y0117000D01*
X0088500Y0117000D01*
X0088500Y0117000D01*
X0084100Y0117000D01*
X0084100Y0115491D01*
X0083539Y0116052D01*
X0082216Y0116600D01*
X0080784Y0116600D01*
X0079461Y0116052D01*
X0078448Y0115039D01*
X0077900Y0113716D01*
X0077900Y0112284D01*
X0078448Y0110961D01*
X0079461Y0109948D01*
X0080784Y0109400D01*
X0082216Y0109400D01*
X0083539Y0109948D01*
X0084491Y0110900D01*
X0088430Y0110900D01*
X0086630Y0109100D01*
X0072035Y0109100D01*
X0086630Y0109100D01*
X0088229Y0110699D02*
X0084290Y0110699D01*
X0084097Y0115494D02*
X0084100Y0115494D01*
X0084100Y0117093D02*
X0076563Y0117093D01*
X0076850Y0117380D02*
X0074370Y0114900D01*
X0072035Y0114900D01*
X0072357Y0114577D01*
X0073050Y0112905D01*
X0073050Y0111095D01*
X0072357Y0109423D01*
X0072035Y0109100D01*
X0072886Y0110699D02*
X0078710Y0110699D01*
X0077900Y0112297D02*
X0073050Y0112297D01*
X0072640Y0113896D02*
X0077974Y0113896D01*
X0078903Y0115494D02*
X0074964Y0115494D01*
X0076850Y0117380D02*
X0077525Y0117100D01*
X0079475Y0117100D01*
X0081276Y0117846D01*
X0082654Y0119224D01*
X0083400Y0121025D01*
X0083400Y0122975D01*
X0082654Y0124776D01*
X0081276Y0126154D01*
X0079475Y0126900D01*
X0077525Y0126900D01*
X0075724Y0126154D01*
X0074346Y0124776D01*
X0073600Y0122975D01*
X0073600Y0121025D01*
X0073880Y0120350D01*
X0072630Y0119100D01*
X0072035Y0119100D01*
X0072357Y0119423D01*
X0073050Y0121095D01*
X0073050Y0122905D01*
X0072357Y0124577D01*
X0071077Y0125857D01*
X0069405Y0126550D01*
X0067595Y0126550D01*
X0065923Y0125857D01*
X0064643Y0124577D01*
X0063950Y0122905D01*
X0063950Y0121095D01*
X0064155Y0120600D01*
X0062784Y0120600D01*
X0061461Y0120052D01*
X0060448Y0119039D01*
X0059900Y0117716D01*
X0059900Y0116284D01*
X0060448Y0114961D01*
X0061461Y0113948D01*
X0062784Y0113400D01*
X0064155Y0113400D01*
X0063950Y0112905D01*
X0063950Y0111095D01*
X0064643Y0109423D01*
X0064965Y0109100D01*
X0051423Y0109100D01*
X0051539Y0109052D02*
X0050216Y0109600D01*
X0048784Y0109600D01*
X0047461Y0109052D01*
X0046448Y0108039D01*
X0045900Y0106716D01*
X0045900Y0105370D01*
X0044630Y0104100D01*
X0043400Y0102870D01*
X0043400Y0099070D01*
X0043370Y0099100D01*
X0042035Y0099100D01*
X0042357Y0099423D01*
X0043050Y0101095D01*
X0043050Y0102905D01*
X0042357Y0104577D01*
X0041077Y0105857D01*
X0039405Y0106550D01*
X0037595Y0106550D01*
X0035923Y0105857D01*
X0034643Y0104577D01*
X0033950Y0102905D01*
X0033950Y0101095D01*
X0034643Y0099423D01*
X0034965Y0099100D01*
X0033600Y0099100D01*
X0033600Y0111660D01*
X0033950Y0112010D01*
X0033950Y0111095D01*
X0034643Y0109423D01*
X0035923Y0108143D01*
X0037595Y0107450D01*
X0039405Y0107450D01*
X0041077Y0108143D01*
X0042357Y0109423D01*
X0043050Y0111095D01*
X0043050Y0112905D01*
X0042357Y0114577D01*
X0041077Y0115857D01*
X0039405Y0116550D01*
X0037595Y0116550D01*
X0035923Y0115857D01*
X0035200Y0115135D01*
X0035200Y0116740D01*
X0032740Y0119200D01*
X0029260Y0119200D01*
X0026800Y0116740D01*
X0026800Y0113260D01*
X0029260Y0110800D01*
X0029400Y0110800D01*
X0029400Y0110323D01*
X0029323Y0110400D01*
X0027500Y0110400D01*
X0027500Y0106000D01*
X0027500Y0106000D01*
X0027500Y0101600D01*
X0029323Y0101600D01*
X0029400Y0101677D01*
X0029400Y0100040D01*
X0029240Y0100200D01*
X0025760Y0100200D01*
X0023300Y0097740D01*
X0023300Y0094260D01*
X0025419Y0092141D01*
X0023100Y0089823D01*
X0023100Y0088000D01*
X0027500Y0088000D01*
X0027500Y0088000D01*
X0023100Y0088000D01*
X0023100Y0086177D01*
X0025677Y0083600D01*
X0026130Y0083600D01*
X0021630Y0079100D01*
X0017530Y0079100D01*
X0017654Y0079224D01*
X0018400Y0081025D01*
X0018400Y0082975D01*
X0017654Y0084776D01*
X0016276Y0086154D01*
X0014475Y0086900D01*
X0012525Y0086900D01*
X0010724Y0086154D01*
X0009346Y0084776D01*
X0008600Y0082975D01*
X0008600Y0081025D01*
X0009346Y0079224D01*
X0010050Y0078520D01*
X0008300Y0076770D01*
X0008300Y0111760D01*
X0009260Y0110800D01*
X0012740Y0110800D01*
X0015200Y0113260D01*
X0015200Y0116740D01*
X0012740Y0119200D01*
X0009260Y0119200D01*
X0008300Y0118240D01*
X0008300Y0122200D01*
X0008441Y0122200D01*
X0010241Y0122946D01*
X0011096Y0123800D01*
X0013740Y0123800D01*
X0016200Y0126260D01*
X0016200Y0129740D01*
X0013740Y0132200D01*
X0013300Y0132200D01*
X0013300Y0132679D01*
X0012750Y0134006D01*
X0013300Y0135333D01*
X0013300Y0136600D01*
X0013323Y0136600D01*
X0015900Y0139177D01*
X0015900Y0141000D01*
X0015900Y0142823D01*
X0013323Y0145400D01*
X0013300Y0145400D01*
X0013300Y0147230D01*
X0016400Y0144130D01*
X0016400Y0135991D01*
X0015448Y0135039D01*
X0014900Y0133716D01*
X0014900Y0132284D01*
X0015448Y0130961D01*
X0016461Y0129948D01*
X0017784Y0129400D01*
X0019216Y0129400D01*
X0020539Y0129948D01*
X0021552Y0130961D01*
X0022100Y0132284D01*
X0022100Y0133716D01*
X0021552Y0135039D01*
X0020600Y0135991D01*
X0020600Y0138900D01*
X0027660Y0138900D01*
X0029760Y0136800D01*
X0033240Y0136800D01*
X0035253Y0138813D01*
X0035923Y0138143D01*
X0037595Y0137450D01*
X0039405Y0137450D01*
X0041077Y0138143D01*
X0042357Y0139423D01*
X0043050Y0141095D01*
X0043050Y0142900D01*
X0063950Y0142900D01*
X0063950Y0141095D01*
X0064148Y0140618D01*
X0054630Y0131100D01*
X0054491Y0131100D01*
X0053539Y0132052D01*
X0052216Y0132600D01*
X0050784Y0132600D01*
X0049461Y0132052D01*
X0048448Y0131039D01*
X0047900Y0129716D01*
X0047900Y0128284D01*
X0048390Y0127100D01*
X0046370Y0127100D01*
X0042852Y0130618D01*
X0043050Y0131095D01*
X0043050Y0132905D01*
X0042357Y0134577D01*
X0041077Y0135857D01*
X0039405Y0136550D01*
X0037595Y0136550D01*
X0035923Y0135857D01*
X0034643Y0134577D01*
X0033950Y0132905D01*
X0033950Y0131990D01*
X0033740Y0132200D01*
X0030260Y0132200D01*
X0027800Y0129740D01*
X0027800Y0126260D01*
X0030260Y0123800D01*
X0033740Y0123800D01*
X0034459Y0124520D01*
X0034437Y0124490D01*
X0034098Y0123823D01*
X0033867Y0123112D01*
X0033750Y0122374D01*
X0033750Y0122175D01*
X0038325Y0122175D01*
X0038325Y0126750D01*
X0038126Y0126750D01*
X0037388Y0126633D01*
X0036677Y0126402D01*
X0036010Y0126063D01*
X0035980Y0126041D01*
X0036200Y0126260D01*
X0036200Y0128028D01*
X0037595Y0127450D01*
X0039405Y0127450D01*
X0039882Y0127648D01*
X0043400Y0124130D01*
X0044630Y0122900D01*
X0055370Y0122900D01*
X0063950Y0131480D01*
X0063950Y0131095D01*
X0064643Y0129423D01*
X0065923Y0128143D01*
X0067595Y0127450D01*
X0069405Y0127450D01*
X0071077Y0128143D01*
X0072357Y0129423D01*
X0073050Y0131095D01*
X0073050Y0132905D01*
X0072357Y0134577D01*
X0071702Y0135232D01*
X0074370Y0137900D01*
X0075020Y0138550D01*
X0075724Y0137846D01*
X0077525Y0137100D01*
X0079475Y0137100D01*
X0081276Y0137846D01*
X0082654Y0139224D01*
X0083400Y0141025D01*
X0083400Y0142975D01*
X0082654Y0144776D01*
X0081950Y0145480D01*
X0084100Y0147630D01*
X0084100Y0147000D01*
X0088500Y0147000D01*
X0088500Y0147000D01*
X0088500Y0151400D01*
X0090323Y0151400D01*
X0092900Y0148823D01*
X0092900Y0147000D01*
X0088500Y0147000D01*
X0088500Y0147000D01*
X0088500Y0151400D01*
X0087870Y0151400D01*
X0088600Y0152130D01*
X0088600Y0155930D01*
X0088600Y0155457D02*
X0100400Y0155457D01*
X0100400Y0153859D02*
X0088600Y0153859D01*
X0088600Y0152260D02*
X0100400Y0152260D01*
X0096430Y0150662D02*
X0091061Y0150662D01*
X0092659Y0149063D02*
X0094836Y0149063D01*
X0094325Y0147465D02*
X0092900Y0147465D01*
X0092900Y0147000D02*
X0088500Y0147000D01*
X0088500Y0142600D01*
X0090323Y0142600D01*
X0092900Y0145177D01*
X0092900Y0147000D01*
X0092900Y0145866D02*
X0094396Y0145866D01*
X0092798Y0144268D02*
X0091990Y0144268D01*
X0091199Y0142669D02*
X0090392Y0142669D01*
X0088500Y0142669D02*
X0088500Y0142669D01*
X0088500Y0142600D02*
X0088500Y0147000D01*
X0088500Y0147000D01*
X0088500Y0147000D01*
X0084100Y0147000D01*
X0084100Y0145177D01*
X0086677Y0142600D01*
X0088500Y0142600D01*
X0088500Y0144268D02*
X0088500Y0144268D01*
X0088500Y0145866D02*
X0088500Y0145866D01*
X0088500Y0147465D02*
X0088500Y0147465D01*
X0088500Y0149063D02*
X0088500Y0149063D01*
X0088500Y0150662D02*
X0088500Y0150662D01*
X0085010Y0144268D02*
X0082864Y0144268D01*
X0082336Y0145866D02*
X0084100Y0145866D01*
X0084100Y0147465D02*
X0083934Y0147465D01*
X0083400Y0142669D02*
X0086608Y0142669D01*
X0086631Y0141070D02*
X0083400Y0141070D01*
X0082757Y0139472D02*
X0085032Y0139472D01*
X0084300Y0137873D02*
X0081303Y0137873D01*
X0080984Y0136275D02*
X0084300Y0136275D01*
X0084884Y0134676D02*
X0082695Y0134676D01*
X0082654Y0134776D02*
X0081276Y0136154D01*
X0079475Y0136900D01*
X0077525Y0136900D01*
X0075724Y0136154D01*
X0074346Y0134776D01*
X0073600Y0132975D01*
X0073600Y0131025D01*
X0074346Y0129224D01*
X0075724Y0127846D01*
X0077525Y0127100D01*
X0079475Y0127100D01*
X0081276Y0127846D01*
X0082654Y0129224D01*
X0083400Y0131025D01*
X0083400Y0132975D01*
X0082654Y0134776D01*
X0083357Y0133078D02*
X0086482Y0133078D01*
X0087691Y0128282D02*
X0081712Y0128282D01*
X0082926Y0129881D02*
X0097067Y0129881D01*
X0096900Y0131479D02*
X0083400Y0131479D01*
X0079996Y0126684D02*
X0086900Y0126684D01*
X0086982Y0125085D02*
X0082344Y0125085D01*
X0083188Y0123487D02*
X0087922Y0123487D01*
X0088400Y0121888D02*
X0083400Y0121888D01*
X0083095Y0120290D02*
X0085567Y0120290D01*
X0084100Y0118691D02*
X0082121Y0118691D01*
X0077004Y0126684D02*
X0059154Y0126684D01*
X0057555Y0125085D02*
X0065151Y0125085D01*
X0064191Y0123487D02*
X0055957Y0123487D01*
X0060304Y0118691D02*
X0041909Y0118691D01*
X0042123Y0118906D02*
X0042563Y0119510D01*
X0042902Y0120177D01*
X0043133Y0120888D01*
X0043250Y0121626D01*
X0043250Y0121825D01*
X0038675Y0121825D01*
X0038675Y0122175D01*
X0038325Y0122175D01*
X0038325Y0121825D01*
X0038675Y0121825D01*
X0038675Y0117250D01*
X0038874Y0117250D01*
X0039612Y0117367D01*
X0040323Y0117598D01*
X0040990Y0117937D01*
X0041594Y0118377D01*
X0042123Y0118906D01*
X0042939Y0120290D02*
X0062035Y0120290D01*
X0063950Y0121888D02*
X0038675Y0121888D01*
X0038675Y0122175D02*
X0043250Y0122175D01*
X0043250Y0122374D01*
X0043133Y0123112D01*
X0042902Y0123823D01*
X0042563Y0124490D01*
X0042123Y0125094D01*
X0041594Y0125623D01*
X0040990Y0126063D01*
X0040323Y0126402D01*
X0039612Y0126633D01*
X0038874Y0126750D01*
X0038675Y0126750D01*
X0038675Y0122175D01*
X0038325Y0121888D02*
X0008300Y0121888D01*
X0008300Y0120290D02*
X0034061Y0120290D01*
X0034098Y0120177D02*
X0034437Y0119510D01*
X0034877Y0118906D01*
X0035406Y0118377D01*
X0036010Y0117937D01*
X0036677Y0117598D01*
X0037388Y0117367D01*
X0038126Y0117250D01*
X0038325Y0117250D01*
X0038325Y0121825D01*
X0033750Y0121825D01*
X0033750Y0121626D01*
X0033867Y0120888D01*
X0034098Y0120177D01*
X0033248Y0118691D02*
X0035091Y0118691D01*
X0034847Y0117093D02*
X0059900Y0117093D01*
X0060227Y0115494D02*
X0041440Y0115494D01*
X0042640Y0113896D02*
X0061587Y0113896D01*
X0063950Y0112297D02*
X0043050Y0112297D01*
X0042886Y0110699D02*
X0064114Y0110699D01*
X0064965Y0109100D02*
X0054630Y0109100D01*
X0053400Y0107870D01*
X0052850Y0107320D01*
X0052552Y0108039D01*
X0051539Y0109052D01*
X0052775Y0107502D02*
X0053032Y0107502D01*
X0054176Y0102706D02*
X0063803Y0102706D01*
X0063750Y0102374D02*
X0063750Y0102175D01*
X0068325Y0102175D01*
X0068325Y0101825D01*
X0063750Y0101825D01*
X0063750Y0101626D01*
X0063867Y0100888D01*
X0064098Y0100177D01*
X0064437Y0099510D01*
X0064736Y0099100D01*
X0052610Y0099100D01*
X0053100Y0100284D01*
X0053100Y0101630D01*
X0056370Y0104900D01*
X0064736Y0104900D01*
X0064437Y0104490D01*
X0064098Y0103823D01*
X0063867Y0103112D01*
X0063750Y0102374D01*
X0063832Y0101108D02*
X0053100Y0101108D01*
X0052779Y0099509D02*
X0064438Y0099509D01*
X0064343Y0104305D02*
X0055775Y0104305D01*
X0047577Y0109100D02*
X0042035Y0109100D01*
X0039530Y0107502D02*
X0046225Y0107502D01*
X0045900Y0105903D02*
X0040966Y0105903D01*
X0042470Y0104305D02*
X0044835Y0104305D01*
X0043400Y0102706D02*
X0043050Y0102706D01*
X0043050Y0101108D02*
X0043400Y0101108D01*
X0043400Y0099509D02*
X0042393Y0099509D01*
X0037470Y0107502D02*
X0033600Y0107502D01*
X0033600Y0109100D02*
X0034965Y0109100D01*
X0034114Y0110699D02*
X0033600Y0110699D01*
X0033600Y0105903D02*
X0036034Y0105903D01*
X0034530Y0104305D02*
X0033600Y0104305D01*
X0033600Y0102706D02*
X0033950Y0102706D01*
X0033950Y0101108D02*
X0033600Y0101108D01*
X0033600Y0099509D02*
X0034607Y0099509D01*
X0029400Y0101108D02*
X0008300Y0101108D01*
X0008300Y0102706D02*
X0024571Y0102706D01*
X0025677Y0101600D02*
X0027500Y0101600D01*
X0027500Y0106000D01*
X0027500Y0106000D01*
X0027500Y0106000D01*
X0023100Y0106000D01*
X0023100Y0107823D01*
X0025677Y0110400D01*
X0027500Y0110400D01*
X0027500Y0106000D01*
X0023100Y0106000D01*
X0023100Y0104177D01*
X0025677Y0101600D01*
X0027500Y0102706D02*
X0027500Y0102706D01*
X0027500Y0104305D02*
X0027500Y0104305D01*
X0027500Y0105903D02*
X0027500Y0105903D01*
X0027500Y0107502D02*
X0027500Y0107502D01*
X0027500Y0109100D02*
X0027500Y0109100D01*
X0027763Y0112297D02*
X0014237Y0112297D01*
X0015200Y0113896D02*
X0026800Y0113896D01*
X0026800Y0115494D02*
X0015200Y0115494D01*
X0014847Y0117093D02*
X0027153Y0117093D01*
X0028752Y0118691D02*
X0013248Y0118691D01*
X0010782Y0123487D02*
X0033989Y0123487D01*
X0036200Y0126684D02*
X0037709Y0126684D01*
X0038325Y0126684D02*
X0038675Y0126684D01*
X0039291Y0126684D02*
X0040846Y0126684D01*
X0042130Y0125085D02*
X0042445Y0125085D01*
X0043011Y0123487D02*
X0044043Y0123487D01*
X0045187Y0128282D02*
X0047901Y0128282D01*
X0047968Y0129881D02*
X0043589Y0129881D01*
X0043050Y0131479D02*
X0048888Y0131479D01*
X0054112Y0131479D02*
X0055010Y0131479D01*
X0056608Y0133078D02*
X0042978Y0133078D01*
X0042258Y0134676D02*
X0058207Y0134676D01*
X0059805Y0136275D02*
X0040069Y0136275D01*
X0040427Y0137873D02*
X0061404Y0137873D01*
X0063002Y0139472D02*
X0042378Y0139472D01*
X0043040Y0141070D02*
X0063960Y0141070D01*
X0063950Y0142669D02*
X0043050Y0142669D01*
X0036573Y0137873D02*
X0034313Y0137873D01*
X0036931Y0136275D02*
X0020600Y0136275D01*
X0020600Y0137873D02*
X0028687Y0137873D01*
X0029540Y0131479D02*
X0021767Y0131479D01*
X0022100Y0133078D02*
X0034022Y0133078D01*
X0034742Y0134676D02*
X0021702Y0134676D01*
X0020377Y0129881D02*
X0027941Y0129881D01*
X0027800Y0128282D02*
X0016200Y0128282D01*
X0016200Y0126684D02*
X0027800Y0126684D01*
X0028975Y0125085D02*
X0015025Y0125085D01*
X0016059Y0129881D02*
X0016623Y0129881D01*
X0015233Y0131479D02*
X0014460Y0131479D01*
X0014900Y0133078D02*
X0013135Y0133078D01*
X0013028Y0134676D02*
X0015298Y0134676D01*
X0016400Y0136275D02*
X0013300Y0136275D01*
X0014596Y0137873D02*
X0016400Y0137873D01*
X0016400Y0139472D02*
X0015900Y0139472D01*
X0015900Y0141000D02*
X0013165Y0141000D01*
X0013165Y0141000D01*
X0015900Y0141000D01*
X0015900Y0141070D02*
X0016400Y0141070D01*
X0016400Y0142669D02*
X0015900Y0142669D01*
X0016263Y0144268D02*
X0014455Y0144268D01*
X0014664Y0145866D02*
X0013300Y0145866D01*
X0008752Y0118691D02*
X0008300Y0118691D01*
X0008300Y0110699D02*
X0029400Y0110699D01*
X0024378Y0109100D02*
X0008300Y0109100D01*
X0008300Y0107502D02*
X0023100Y0107502D01*
X0023100Y0105903D02*
X0008300Y0105903D01*
X0008300Y0104305D02*
X0023100Y0104305D01*
X0025070Y0099509D02*
X0008300Y0099509D01*
X0008300Y0097911D02*
X0023471Y0097911D01*
X0023300Y0096312D02*
X0017451Y0096312D01*
X0017163Y0096600D02*
X0018100Y0095663D01*
X0018100Y0088337D01*
X0017163Y0087400D01*
X0009837Y0087400D01*
X0008900Y0088337D01*
X0008900Y0095663D01*
X0009837Y0096600D01*
X0017163Y0096600D01*
X0018100Y0094714D02*
X0023300Y0094714D01*
X0024445Y0093115D02*
X0018100Y0093115D01*
X0018100Y0091517D02*
X0024794Y0091517D01*
X0023196Y0089918D02*
X0018100Y0089918D01*
X0018082Y0088320D02*
X0023100Y0088320D01*
X0023100Y0086721D02*
X0014907Y0086721D01*
X0012093Y0086721D02*
X0008300Y0086721D01*
X0008300Y0085123D02*
X0009693Y0085123D01*
X0008828Y0083524D02*
X0008300Y0083524D01*
X0008300Y0081926D02*
X0008600Y0081926D01*
X0008889Y0080327D02*
X0008300Y0080327D01*
X0008300Y0078729D02*
X0009842Y0078729D01*
X0008660Y0077130D02*
X0008300Y0077130D01*
X0008300Y0088320D02*
X0008918Y0088320D01*
X0008900Y0089918D02*
X0008300Y0089918D01*
X0008300Y0091517D02*
X0008900Y0091517D01*
X0008900Y0093115D02*
X0008300Y0093115D01*
X0008300Y0094714D02*
X0008900Y0094714D01*
X0008300Y0096312D02*
X0009549Y0096312D01*
X0017307Y0085123D02*
X0024155Y0085123D01*
X0024456Y0081926D02*
X0018400Y0081926D01*
X0018172Y0083524D02*
X0026054Y0083524D01*
X0022857Y0080327D02*
X0018111Y0080327D01*
X0027500Y0061000D02*
X0027500Y0061000D01*
X0027500Y0056600D01*
X0029323Y0056600D01*
X0029400Y0056677D01*
X0029400Y0045040D01*
X0029240Y0045200D01*
X0025760Y0045200D01*
X0025600Y0045040D01*
X0025600Y0056677D01*
X0025677Y0056600D01*
X0027500Y0056600D01*
X0027500Y0061000D01*
X0027500Y0059546D02*
X0027500Y0059546D01*
X0027500Y0057948D02*
X0027500Y0057948D01*
X0025600Y0056349D02*
X0029400Y0056349D01*
X0029400Y0054751D02*
X0025600Y0054751D01*
X0025600Y0053152D02*
X0029400Y0053152D01*
X0029400Y0051554D02*
X0025600Y0051554D01*
X0025600Y0049955D02*
X0029400Y0049955D01*
X0029400Y0048357D02*
X0025600Y0048357D01*
X0025600Y0046758D02*
X0029400Y0046758D01*
X0029400Y0045160D02*
X0029280Y0045160D01*
X0025720Y0045160D02*
X0025600Y0045160D01*
X0023177Y0034900D02*
X0023100Y0034823D01*
X0023100Y0033000D01*
X0027500Y0033000D01*
X0031900Y0033000D01*
X0031900Y0034823D01*
X0031823Y0034900D01*
X0039300Y0034900D01*
X0039300Y0034260D01*
X0041760Y0031800D01*
X0045240Y0031800D01*
X0047340Y0033900D01*
X0052630Y0033900D01*
X0056630Y0029900D01*
X0070460Y0029900D01*
X0069300Y0028740D01*
X0069300Y0025260D01*
X0071760Y0022800D01*
X0075240Y0022800D01*
X0077700Y0025260D01*
X0077700Y0028740D01*
X0076540Y0029900D01*
X0084370Y0029900D01*
X0085600Y0031130D01*
X0088870Y0034400D01*
X0090216Y0034400D01*
X0091539Y0034948D01*
X0092552Y0035961D01*
X0093100Y0037284D01*
X0093100Y0038716D01*
X0092610Y0039900D01*
X0099066Y0039900D01*
X0099346Y0039224D01*
X0100724Y0037846D01*
X0102525Y0037100D01*
X0104475Y0037100D01*
X0106276Y0037846D01*
X0107654Y0039224D01*
X0108400Y0041025D01*
X0108400Y0042975D01*
X0107654Y0044776D01*
X0106276Y0046154D01*
X0104475Y0046900D01*
X0102525Y0046900D01*
X0100724Y0046154D01*
X0099346Y0044776D01*
X0099066Y0044100D01*
X0098570Y0044100D01*
X0099600Y0045130D01*
X0101850Y0047380D01*
X0102525Y0047100D01*
X0104475Y0047100D01*
X0106276Y0047846D01*
X0107654Y0049224D01*
X0108400Y0051025D01*
X0108400Y0052975D01*
X0107654Y0054776D01*
X0106276Y0056154D01*
X0104475Y0056900D01*
X0102525Y0056900D01*
X0100724Y0056154D01*
X0099346Y0054776D01*
X0098600Y0052975D01*
X0098600Y0051025D01*
X0098880Y0050350D01*
X0096630Y0048100D01*
X0077900Y0048100D01*
X0077900Y0048823D01*
X0075323Y0051400D01*
X0073500Y0051400D01*
X0073500Y0047000D01*
X0073500Y0047000D01*
X0073500Y0047000D01*
X0069100Y0047000D01*
X0069100Y0048823D01*
X0071677Y0051400D01*
X0073500Y0051400D01*
X0073500Y0047000D01*
X0069100Y0047000D01*
X0069100Y0045177D01*
X0071177Y0043100D01*
X0065540Y0043100D01*
X0067700Y0045260D01*
X0067700Y0048740D01*
X0065240Y0051200D01*
X0061760Y0051200D01*
X0059300Y0048740D01*
X0059300Y0045260D01*
X0061460Y0043100D01*
X0045823Y0043100D01*
X0047900Y0045177D01*
X0047900Y0047000D01*
X0047900Y0048823D01*
X0046671Y0050052D01*
X0046929Y0050310D01*
X0047338Y0049900D01*
X0050372Y0049900D01*
X0051157Y0050685D01*
X0051942Y0049900D01*
X0055727Y0049900D01*
X0055761Y0049934D01*
X0055795Y0049900D01*
X0057328Y0049900D01*
X0058412Y0050984D01*
X0058412Y0052152D01*
X0058829Y0052152D01*
X0059913Y0053236D01*
X0059913Y0054404D01*
X0060331Y0054404D01*
X0061414Y0055488D01*
X0061414Y0057020D01*
X0060331Y0058104D01*
X0055795Y0058104D01*
X0054712Y0057020D01*
X0054712Y0056603D01*
X0054194Y0056603D01*
X0053459Y0055868D01*
X0052724Y0056603D01*
X0051873Y0056603D01*
X0051123Y0057353D01*
X0050372Y0058104D01*
X0047338Y0058104D01*
X0046255Y0057020D01*
X0046101Y0056867D01*
X0046101Y0057020D01*
X0045018Y0058104D01*
X0043485Y0058104D01*
X0042401Y0057020D01*
X0040900Y0055519D01*
X0040900Y0053986D01*
X0041635Y0053251D01*
X0040900Y0052516D01*
X0040900Y0050984D01*
X0041081Y0050803D01*
X0039100Y0048823D01*
X0039100Y0047000D01*
X0043500Y0047000D01*
X0047900Y0047000D01*
X0043500Y0047000D01*
X0043500Y0047000D01*
X0043500Y0047000D01*
X0039100Y0047000D01*
X0039100Y0045177D01*
X0041177Y0043100D01*
X0038491Y0043100D01*
X0037539Y0044052D01*
X0036216Y0044600D01*
X0034784Y0044600D01*
X0033600Y0044110D01*
X0033600Y0061130D01*
X0033950Y0061480D01*
X0033950Y0061095D01*
X0034643Y0059423D01*
X0035923Y0058143D01*
X0037595Y0057450D01*
X0039405Y0057450D01*
X0041077Y0058143D01*
X0042357Y0059423D01*
X0043050Y0061095D01*
X0043050Y0062900D01*
X0063950Y0062900D01*
X0063950Y0061095D01*
X0064643Y0059423D01*
X0065923Y0058143D01*
X0067595Y0057450D01*
X0069405Y0057450D01*
X0071077Y0058143D01*
X0072357Y0059423D01*
X0073050Y0061095D01*
X0073050Y0062905D01*
X0072357Y0064577D01*
X0071702Y0065232D01*
X0075370Y0068900D01*
X0076600Y0070130D01*
X0076600Y0072960D01*
X0076760Y0072800D01*
X0078349Y0072800D01*
X0077900Y0071716D01*
X0077900Y0070284D01*
X0078448Y0068961D01*
X0079461Y0067948D01*
X0080784Y0067400D01*
X0082216Y0067400D01*
X0083539Y0067948D01*
X0084552Y0068961D01*
X0084941Y0069900D01*
X0099066Y0069900D01*
X0099346Y0069224D01*
X0100724Y0067846D01*
X0102525Y0067100D01*
X0104475Y0067100D01*
X0106276Y0067846D01*
X0107654Y0069224D01*
X0108400Y0071025D01*
X0108400Y0072975D01*
X0107654Y0074776D01*
X0106276Y0076154D01*
X0104475Y0076900D01*
X0102525Y0076900D01*
X0100724Y0076154D01*
X0099346Y0074776D01*
X0099066Y0074100D01*
X0083423Y0074100D01*
X0082216Y0074600D01*
X0082040Y0074600D01*
X0082700Y0075260D01*
X0082700Y0078740D01*
X0081540Y0079900D01*
X0099066Y0079900D01*
X0099346Y0079224D01*
X0100724Y0077846D01*
X0102525Y0077100D01*
X0104475Y0077100D01*
X0106276Y0077846D01*
X0107654Y0079224D01*
X0108400Y0081025D01*
X0108400Y0082975D01*
X0107654Y0084776D01*
X0107530Y0084900D01*
X0108370Y0084900D01*
X0109901Y0086431D01*
X0109901Y0006757D01*
X0092485Y0006600D01*
X0093100Y0008085D01*
X0093100Y0015915D01*
X0092400Y0017606D01*
X0091106Y0018900D01*
X0089415Y0019600D01*
X0087585Y0019600D01*
X0085894Y0018900D01*
X0084600Y0017606D01*
X0083900Y0015915D01*
X0083900Y0008085D01*
X0084545Y0006529D01*
X0082448Y0006510D01*
X0083100Y0008085D01*
X0083100Y0015915D01*
X0082400Y0017606D01*
X0081106Y0018900D01*
X0079415Y0019600D01*
X0077585Y0019600D01*
X0075894Y0018900D01*
X0074600Y0017606D01*
X0073900Y0015915D01*
X0073900Y0008085D01*
X0074582Y0006439D01*
X0072410Y0006420D01*
X0073100Y0008085D01*
X0073100Y0015915D01*
X0072400Y0017606D01*
X0071106Y0018900D01*
X0069415Y0019600D01*
X0067585Y0019600D01*
X0065894Y0018900D01*
X0064600Y0017606D01*
X0063900Y0015915D01*
X0063900Y0008085D01*
X0064600Y0006394D01*
X0064645Y0006350D01*
X0062494Y0006331D01*
X0062605Y0006484D01*
X0062948Y0007157D01*
X0063182Y0007876D01*
X0063300Y0008622D01*
X0063300Y0011800D01*
X0058700Y0011800D01*
X0058700Y0012200D01*
X0058300Y0012200D01*
X0058300Y0019800D01*
X0058122Y0019800D01*
X0057376Y0019682D01*
X0056769Y0019485D01*
X0057100Y0020284D01*
X0057100Y0021716D01*
X0056552Y0023039D01*
X0056015Y0023576D01*
X0057700Y0025260D01*
X0057700Y0028740D01*
X0055240Y0031200D01*
X0051760Y0031200D01*
X0049300Y0028740D01*
X0049300Y0027100D01*
X0042491Y0027100D01*
X0041539Y0028052D01*
X0040216Y0028600D01*
X0038784Y0028600D01*
X0037461Y0028052D01*
X0036448Y0027039D01*
X0035900Y0025716D01*
X0035900Y0024284D01*
X0036448Y0022961D01*
X0036470Y0022939D01*
X0035400Y0021870D01*
X0032630Y0019100D01*
X0029540Y0019100D01*
X0031700Y0021260D01*
X0031700Y0024740D01*
X0029240Y0027200D01*
X0025760Y0027200D01*
X0023300Y0024740D01*
X0023300Y0021260D01*
X0025460Y0019100D01*
X0017697Y0019100D01*
X0017862Y0019327D01*
X0018226Y0020042D01*
X0018474Y0020806D01*
X0018600Y0021599D01*
X0018600Y0021800D01*
X0013700Y0021800D01*
X0013700Y0022200D01*
X0013300Y0022200D01*
X0013300Y0027100D01*
X0013099Y0027100D01*
X0012306Y0026974D01*
X0011542Y0026726D01*
X0010827Y0026362D01*
X0010600Y0026197D01*
X0010600Y0027970D01*
X0010724Y0027846D01*
X0012525Y0027100D01*
X0014475Y0027100D01*
X0016276Y0027846D01*
X0017654Y0029224D01*
X0018400Y0031025D01*
X0018400Y0032975D01*
X0018120Y0033650D01*
X0019370Y0034900D01*
X0023177Y0034900D01*
X0023100Y0033970D02*
X0018440Y0033970D01*
X0018400Y0032372D02*
X0023100Y0032372D01*
X0023100Y0033000D02*
X0023100Y0031177D01*
X0025677Y0028600D01*
X0027500Y0028600D01*
X0029323Y0028600D01*
X0031900Y0031177D01*
X0031900Y0033000D01*
X0027500Y0033000D01*
X0027500Y0033000D01*
X0027500Y0028600D01*
X0027500Y0033000D01*
X0027500Y0033000D01*
X0027500Y0033000D01*
X0023100Y0033000D01*
X0023504Y0030773D02*
X0018296Y0030773D01*
X0017604Y0029175D02*
X0025103Y0029175D01*
X0027500Y0029175D02*
X0027500Y0029175D01*
X0027500Y0030773D02*
X0027500Y0030773D01*
X0027500Y0032372D02*
X0027500Y0032372D01*
X0029897Y0029175D02*
X0049735Y0029175D01*
X0049300Y0027576D02*
X0042015Y0027576D01*
X0041189Y0032372D02*
X0031900Y0032372D01*
X0031900Y0033970D02*
X0039590Y0033970D01*
X0036985Y0027576D02*
X0015624Y0027576D01*
X0015458Y0026726D02*
X0014694Y0026974D01*
X0013901Y0027100D01*
X0013700Y0027100D01*
X0013700Y0022200D01*
X0018600Y0022200D01*
X0018600Y0022401D01*
X0018474Y0023194D01*
X0018226Y0023958D01*
X0017862Y0024673D01*
X0017390Y0025322D01*
X0016822Y0025890D01*
X0016173Y0026362D01*
X0015458Y0026726D01*
X0016702Y0025978D02*
X0024538Y0025978D01*
X0023300Y0024379D02*
X0018012Y0024379D01*
X0018540Y0022781D02*
X0023300Y0022781D01*
X0023378Y0021182D02*
X0018534Y0021182D01*
X0017993Y0019584D02*
X0024977Y0019584D01*
X0030023Y0019584D02*
X0033114Y0019584D01*
X0031622Y0021182D02*
X0034712Y0021182D01*
X0036311Y0022781D02*
X0031700Y0022781D01*
X0031700Y0024379D02*
X0035900Y0024379D01*
X0036008Y0025978D02*
X0030462Y0025978D01*
X0031496Y0030773D02*
X0051334Y0030773D01*
X0054158Y0032372D02*
X0045811Y0032372D01*
X0046284Y0043561D02*
X0060999Y0043561D01*
X0059400Y0045160D02*
X0047882Y0045160D01*
X0047900Y0046758D02*
X0059300Y0046758D01*
X0059300Y0048357D02*
X0047900Y0048357D01*
X0047283Y0049955D02*
X0046767Y0049955D01*
X0050427Y0049955D02*
X0051887Y0049955D01*
X0052977Y0056349D02*
X0053941Y0056349D01*
X0055640Y0057948D02*
X0050528Y0057948D01*
X0047182Y0057948D02*
X0045173Y0057948D01*
X0043329Y0057948D02*
X0040607Y0057948D01*
X0041731Y0056349D02*
X0033600Y0056349D01*
X0033600Y0054751D02*
X0040900Y0054751D01*
X0041536Y0053152D02*
X0033600Y0053152D01*
X0033600Y0051554D02*
X0040900Y0051554D01*
X0040233Y0049955D02*
X0033600Y0049955D01*
X0033600Y0048357D02*
X0039100Y0048357D01*
X0039100Y0046758D02*
X0033600Y0046758D01*
X0033600Y0045160D02*
X0039118Y0045160D01*
X0038030Y0043561D02*
X0040716Y0043561D01*
X0036393Y0057948D02*
X0033600Y0057948D01*
X0033600Y0059546D02*
X0034591Y0059546D01*
X0033950Y0061145D02*
X0033615Y0061145D01*
X0042409Y0059546D02*
X0064591Y0059546D01*
X0063950Y0061145D02*
X0043050Y0061145D01*
X0043050Y0062743D02*
X0063950Y0062743D01*
X0066393Y0057948D02*
X0060487Y0057948D01*
X0061414Y0056349D02*
X0074100Y0056349D01*
X0074100Y0057000D02*
X0074100Y0055177D01*
X0076677Y0052600D01*
X0078500Y0052600D01*
X0080323Y0052600D01*
X0082900Y0055177D01*
X0082900Y0057000D01*
X0082900Y0058823D01*
X0080323Y0061400D01*
X0078500Y0061400D01*
X0078500Y0057000D01*
X0078500Y0057000D01*
X0082900Y0057000D01*
X0078500Y0057000D01*
X0078500Y0057000D01*
X0078500Y0057000D01*
X0074100Y0057000D01*
X0074100Y0058823D01*
X0076677Y0061400D01*
X0078500Y0061400D01*
X0078500Y0057000D01*
X0078500Y0052600D01*
X0078500Y0057000D01*
X0078500Y0057000D01*
X0074100Y0057000D01*
X0074100Y0057948D02*
X0070607Y0057948D01*
X0072409Y0059546D02*
X0074824Y0059546D01*
X0076422Y0061145D02*
X0073050Y0061145D01*
X0073050Y0062743D02*
X0098600Y0062743D01*
X0098600Y0062975D02*
X0098600Y0061025D01*
X0099346Y0059224D01*
X0100724Y0057846D01*
X0102525Y0057100D01*
X0104475Y0057100D01*
X0106276Y0057846D01*
X0107654Y0059224D01*
X0108400Y0061025D01*
X0108400Y0062975D01*
X0107654Y0064776D01*
X0106276Y0066154D01*
X0104475Y0066900D01*
X0102525Y0066900D01*
X0100724Y0066154D01*
X0099346Y0064776D01*
X0098600Y0062975D01*
X0099166Y0064342D02*
X0072455Y0064342D01*
X0072410Y0065940D02*
X0100511Y0065940D01*
X0101466Y0067539D02*
X0082552Y0067539D01*
X0084625Y0069137D02*
X0099433Y0069137D01*
X0100102Y0075532D02*
X0082700Y0075532D01*
X0082700Y0077130D02*
X0102453Y0077130D01*
X0104547Y0077130D02*
X0109901Y0077130D01*
X0109901Y0075532D02*
X0106898Y0075532D01*
X0108003Y0073933D02*
X0109901Y0073933D01*
X0109901Y0072334D02*
X0108400Y0072334D01*
X0108280Y0070736D02*
X0109901Y0070736D01*
X0109901Y0069137D02*
X0107567Y0069137D01*
X0105534Y0067539D02*
X0109901Y0067539D01*
X0109901Y0065940D02*
X0106489Y0065940D01*
X0107834Y0064342D02*
X0109901Y0064342D01*
X0109901Y0062743D02*
X0108400Y0062743D01*
X0108400Y0061145D02*
X0109901Y0061145D01*
X0109901Y0059546D02*
X0107787Y0059546D01*
X0106378Y0057948D02*
X0109901Y0057948D01*
X0109901Y0056349D02*
X0105804Y0056349D01*
X0107664Y0054751D02*
X0109901Y0054751D01*
X0109901Y0053152D02*
X0108326Y0053152D01*
X0108400Y0051554D02*
X0109901Y0051554D01*
X0109901Y0049955D02*
X0107957Y0049955D01*
X0106786Y0048357D02*
X0109901Y0048357D01*
X0109901Y0046758D02*
X0104817Y0046758D01*
X0107270Y0045160D02*
X0109901Y0045160D01*
X0109901Y0043561D02*
X0108157Y0043561D01*
X0108400Y0041963D02*
X0109901Y0041963D01*
X0109901Y0040364D02*
X0108126Y0040364D01*
X0107195Y0038766D02*
X0109901Y0038766D01*
X0109901Y0037167D02*
X0104637Y0037167D01*
X0104475Y0036900D02*
X0102525Y0036900D01*
X0100724Y0036154D01*
X0099346Y0034776D01*
X0098600Y0032975D01*
X0098600Y0031025D01*
X0099346Y0029224D01*
X0100724Y0027846D01*
X0102525Y0027100D01*
X0104475Y0027100D01*
X0106276Y0027846D01*
X0107654Y0029224D01*
X0108400Y0031025D01*
X0108400Y0032975D01*
X0107654Y0034776D01*
X0106276Y0036154D01*
X0104475Y0036900D01*
X0102363Y0037167D02*
X0093052Y0037167D01*
X0093079Y0038766D02*
X0099805Y0038766D01*
X0100139Y0035569D02*
X0092160Y0035569D01*
X0088440Y0033970D02*
X0099012Y0033970D01*
X0098600Y0032372D02*
X0086842Y0032372D01*
X0085243Y0030773D02*
X0098704Y0030773D01*
X0099396Y0029175D02*
X0077265Y0029175D01*
X0077700Y0027576D02*
X0101376Y0027576D01*
X0101542Y0026726D02*
X0100827Y0026362D01*
X0100178Y0025890D01*
X0099610Y0025322D01*
X0099138Y0024673D01*
X0098774Y0023958D01*
X0098526Y0023194D01*
X0098400Y0022401D01*
X0098400Y0022200D01*
X0103300Y0022200D01*
X0103300Y0027100D01*
X0103099Y0027100D01*
X0102306Y0026974D01*
X0101542Y0026726D01*
X0100298Y0025978D02*
X0077700Y0025978D01*
X0076819Y0024379D02*
X0098988Y0024379D01*
X0098460Y0022781D02*
X0056659Y0022781D01*
X0056819Y0024379D02*
X0070181Y0024379D01*
X0069300Y0025978D02*
X0057700Y0025978D01*
X0057700Y0027576D02*
X0069300Y0027576D01*
X0069735Y0029175D02*
X0057265Y0029175D01*
X0055757Y0030773D02*
X0055666Y0030773D01*
X0057100Y0021182D02*
X0098466Y0021182D01*
X0098526Y0020806D02*
X0098774Y0020042D01*
X0099138Y0019327D01*
X0099610Y0018678D01*
X0100178Y0018110D01*
X0100827Y0017638D01*
X0101542Y0017274D01*
X0102306Y0017026D01*
X0103099Y0016900D01*
X0103300Y0016900D01*
X0103300Y0021800D01*
X0103700Y0021800D01*
X0103700Y0022200D01*
X0108600Y0022200D01*
X0108600Y0022401D01*
X0108474Y0023194D01*
X0108226Y0023958D01*
X0107862Y0024673D01*
X0107390Y0025322D01*
X0106822Y0025890D01*
X0106173Y0026362D01*
X0105458Y0026726D01*
X0104694Y0026974D01*
X0103901Y0027100D01*
X0103700Y0027100D01*
X0103700Y0022200D01*
X0103300Y0022200D01*
X0103300Y0021800D01*
X0098400Y0021800D01*
X0098400Y0021599D01*
X0098526Y0020806D01*
X0099007Y0019584D02*
X0089455Y0019584D01*
X0087545Y0019584D02*
X0079455Y0019584D01*
X0077545Y0019584D02*
X0069455Y0019584D01*
X0067545Y0019584D02*
X0059926Y0019584D01*
X0059624Y0019682D02*
X0058878Y0019800D01*
X0058700Y0019800D01*
X0058700Y0012200D01*
X0063300Y0012200D01*
X0063300Y0015378D01*
X0063182Y0016124D01*
X0062948Y0016843D01*
X0062605Y0017516D01*
X0062161Y0018127D01*
X0061627Y0018661D01*
X0061016Y0019105D01*
X0060343Y0019448D01*
X0059624Y0019682D01*
X0058700Y0019584D02*
X0058300Y0019584D01*
X0057074Y0019584D02*
X0056810Y0019584D01*
X0058300Y0017985D02*
X0058700Y0017985D01*
X0058700Y0016387D02*
X0058300Y0016387D01*
X0058300Y0014788D02*
X0058700Y0014788D01*
X0058700Y0013190D02*
X0058300Y0013190D01*
X0058300Y0012200D02*
X0058300Y0011800D01*
X0053700Y0011800D01*
X0053700Y0008622D01*
X0053818Y0007876D01*
X0054052Y0007157D01*
X0054395Y0006484D01*
X0054558Y0006259D01*
X0052244Y0006239D01*
X0052400Y0006394D01*
X0053100Y0008085D01*
X0053100Y0015915D01*
X0052423Y0017550D01*
X0052784Y0017400D01*
X0054216Y0017400D01*
X0054368Y0017463D01*
X0054052Y0016843D01*
X0053818Y0016124D01*
X0053700Y0015378D01*
X0053700Y0012200D01*
X0058300Y0012200D01*
X0062264Y0017985D02*
X0064980Y0017985D01*
X0064095Y0016387D02*
X0063096Y0016387D01*
X0063300Y0014788D02*
X0063900Y0014788D01*
X0063900Y0013190D02*
X0063300Y0013190D01*
X0063300Y0011591D02*
X0063900Y0011591D01*
X0063900Y0009993D02*
X0063300Y0009993D01*
X0063264Y0008394D02*
X0063900Y0008394D01*
X0064434Y0006796D02*
X0062764Y0006796D01*
X0072020Y0017985D02*
X0074980Y0017985D01*
X0074095Y0016387D02*
X0072905Y0016387D01*
X0073100Y0014788D02*
X0073900Y0014788D01*
X0073900Y0013190D02*
X0073100Y0013190D01*
X0073100Y0011591D02*
X0073900Y0011591D01*
X0073900Y0009993D02*
X0073100Y0009993D01*
X0073100Y0008394D02*
X0073900Y0008394D01*
X0074434Y0006796D02*
X0072566Y0006796D01*
X0082020Y0017985D02*
X0084980Y0017985D01*
X0084095Y0016387D02*
X0082905Y0016387D01*
X0083100Y0014788D02*
X0083900Y0014788D01*
X0083900Y0013190D02*
X0083100Y0013190D01*
X0083100Y0011591D02*
X0083900Y0011591D01*
X0083900Y0009993D02*
X0083100Y0009993D01*
X0083100Y0008394D02*
X0083900Y0008394D01*
X0084434Y0006796D02*
X0082566Y0006796D01*
X0092566Y0006796D02*
X0109901Y0006796D01*
X0109901Y0008394D02*
X0093100Y0008394D01*
X0093100Y0009993D02*
X0109901Y0009993D01*
X0109901Y0011591D02*
X0093100Y0011591D01*
X0093100Y0013190D02*
X0109901Y0013190D01*
X0109901Y0014788D02*
X0093100Y0014788D01*
X0092905Y0016387D02*
X0109901Y0016387D01*
X0109901Y0017985D02*
X0106651Y0017985D01*
X0106822Y0018110D02*
X0107390Y0018678D01*
X0107862Y0019327D01*
X0108226Y0020042D01*
X0108474Y0020806D01*
X0108600Y0021599D01*
X0108600Y0021800D01*
X0103700Y0021800D01*
X0103700Y0016900D01*
X0103901Y0016900D01*
X0104694Y0017026D01*
X0105458Y0017274D01*
X0106173Y0017638D01*
X0106822Y0018110D01*
X0107993Y0019584D02*
X0109901Y0019584D01*
X0109901Y0021182D02*
X0108534Y0021182D01*
X0108540Y0022781D02*
X0109901Y0022781D01*
X0109901Y0024379D02*
X0108012Y0024379D01*
X0106702Y0025978D02*
X0109901Y0025978D01*
X0109901Y0027576D02*
X0105624Y0027576D01*
X0103700Y0025978D02*
X0103300Y0025978D01*
X0103300Y0024379D02*
X0103700Y0024379D01*
X0103700Y0022781D02*
X0103300Y0022781D01*
X0103300Y0021182D02*
X0103700Y0021182D01*
X0103700Y0019584D02*
X0103300Y0019584D01*
X0103300Y0017985D02*
X0103700Y0017985D01*
X0100349Y0017985D02*
X0092020Y0017985D01*
X0106861Y0035569D02*
X0109901Y0035569D01*
X0109901Y0033970D02*
X0107988Y0033970D01*
X0108400Y0032372D02*
X0109901Y0032372D01*
X0109901Y0030773D02*
X0108296Y0030773D01*
X0107604Y0029175D02*
X0109901Y0029175D01*
X0102183Y0046758D02*
X0101228Y0046758D01*
X0099730Y0045160D02*
X0099630Y0045160D01*
X0096887Y0048357D02*
X0077900Y0048357D01*
X0076767Y0049955D02*
X0098486Y0049955D01*
X0098600Y0051554D02*
X0058412Y0051554D01*
X0057383Y0049955D02*
X0060516Y0049955D01*
X0059830Y0053152D02*
X0076125Y0053152D01*
X0074527Y0054751D02*
X0060678Y0054751D01*
X0066484Y0049955D02*
X0070233Y0049955D01*
X0069100Y0048357D02*
X0067700Y0048357D01*
X0067700Y0046758D02*
X0069100Y0046758D01*
X0069118Y0045160D02*
X0067599Y0045160D01*
X0066001Y0043561D02*
X0070716Y0043561D01*
X0073500Y0048357D02*
X0073500Y0048357D01*
X0073500Y0049955D02*
X0073500Y0049955D01*
X0078500Y0053152D02*
X0078500Y0053152D01*
X0078500Y0054751D02*
X0078500Y0054751D01*
X0078500Y0056349D02*
X0078500Y0056349D01*
X0078500Y0057948D02*
X0078500Y0057948D01*
X0078500Y0059546D02*
X0078500Y0059546D01*
X0078500Y0061145D02*
X0078500Y0061145D01*
X0080578Y0061145D02*
X0098600Y0061145D01*
X0099213Y0059546D02*
X0082176Y0059546D01*
X0082900Y0057948D02*
X0100622Y0057948D01*
X0101196Y0056349D02*
X0082900Y0056349D01*
X0082473Y0054751D02*
X0099336Y0054751D01*
X0098674Y0053152D02*
X0080875Y0053152D01*
X0080448Y0067539D02*
X0074009Y0067539D01*
X0075607Y0069137D02*
X0078375Y0069137D01*
X0077900Y0070736D02*
X0076600Y0070736D01*
X0076600Y0072334D02*
X0078156Y0072334D01*
X0082700Y0078729D02*
X0099842Y0078729D01*
X0098600Y0090870D02*
X0086370Y0103100D01*
X0075630Y0103100D01*
X0074400Y0101870D01*
X0072996Y0100466D01*
X0073133Y0100888D01*
X0073250Y0101626D01*
X0073250Y0101825D01*
X0068675Y0101825D01*
X0068675Y0102175D01*
X0073250Y0102175D01*
X0073250Y0102374D01*
X0073133Y0103112D01*
X0072902Y0103823D01*
X0072563Y0104490D01*
X0072264Y0104900D01*
X0088370Y0104900D01*
X0089300Y0105830D01*
X0089300Y0105260D01*
X0091760Y0102800D01*
X0095240Y0102800D01*
X0097700Y0105260D01*
X0097700Y0108740D01*
X0095955Y0110485D01*
X0103370Y0117900D01*
X0103500Y0118030D01*
X0103630Y0117900D01*
X0105400Y0116130D01*
X0105400Y0111323D01*
X0105323Y0111400D01*
X0103500Y0111400D01*
X0103500Y0107000D01*
X0103500Y0107000D01*
X0103500Y0107000D01*
X0099100Y0107000D01*
X0099100Y0108823D01*
X0101677Y0111400D01*
X0103500Y0111400D01*
X0103500Y0107000D01*
X0099100Y0107000D01*
X0099100Y0105177D01*
X0101400Y0102877D01*
X0101400Y0096900D01*
X0099537Y0096900D01*
X0098600Y0095963D01*
X0098600Y0090870D01*
X0098600Y0091517D02*
X0097953Y0091517D01*
X0098600Y0093115D02*
X0096355Y0093115D01*
X0094756Y0094714D02*
X0098600Y0094714D01*
X0098949Y0096312D02*
X0093158Y0096312D01*
X0091559Y0097911D02*
X0101400Y0097911D01*
X0101400Y0099509D02*
X0089961Y0099509D01*
X0088362Y0101108D02*
X0101400Y0101108D01*
X0101400Y0102706D02*
X0086764Y0102706D01*
X0090256Y0104305D02*
X0072657Y0104305D01*
X0073197Y0102706D02*
X0075236Y0102706D01*
X0073638Y0101108D02*
X0073168Y0101108D01*
X0072716Y0120290D02*
X0073820Y0120290D01*
X0073600Y0121888D02*
X0073050Y0121888D01*
X0072809Y0123487D02*
X0073812Y0123487D01*
X0074656Y0125085D02*
X0071849Y0125085D01*
X0071217Y0128282D02*
X0075288Y0128282D01*
X0074074Y0129881D02*
X0072547Y0129881D01*
X0073050Y0131479D02*
X0073600Y0131479D01*
X0073643Y0133078D02*
X0072978Y0133078D01*
X0072258Y0134676D02*
X0074305Y0134676D01*
X0072745Y0136275D02*
X0076016Y0136275D01*
X0075697Y0137873D02*
X0074343Y0137873D01*
X0065783Y0128282D02*
X0060752Y0128282D01*
X0062351Y0129881D02*
X0064453Y0129881D01*
X0063949Y0131479D02*
X0063950Y0131479D01*
X0038675Y0125085D02*
X0038325Y0125085D01*
X0038325Y0123487D02*
X0038675Y0123487D01*
X0038675Y0120290D02*
X0038325Y0120290D01*
X0038325Y0118691D02*
X0038675Y0118691D01*
X0035560Y0115494D02*
X0035200Y0115494D01*
X0035600Y0176238D02*
X0036841Y0176238D01*
X0036662Y0177836D02*
X0035600Y0177836D01*
X0043050Y0192223D02*
X0043753Y0192223D01*
X0043050Y0193821D02*
X0045352Y0193821D01*
X0046950Y0195420D02*
X0043050Y0195420D01*
X0048549Y0197018D02*
X0031300Y0197018D01*
X0031300Y0195420D02*
X0033950Y0195420D01*
X0032155Y0200215D02*
X0035963Y0200215D01*
X0034461Y0201814D02*
X0032700Y0201814D01*
X0032700Y0203412D02*
X0033799Y0203412D01*
X0033765Y0205011D02*
X0031929Y0205011D01*
X0030330Y0206609D02*
X0033765Y0206609D01*
X0033765Y0208208D02*
X0026262Y0208208D01*
X0026600Y0207870D02*
X0026600Y0207870D01*
X0024300Y0203412D02*
X0015852Y0203412D01*
X0012181Y0201814D02*
X0024300Y0201814D01*
X0031300Y0198617D02*
X0050147Y0198617D01*
X0033765Y0209806D02*
X0016633Y0209806D01*
X0011148Y0203412D02*
X0010583Y0203412D01*
X0010537Y0203459D02*
X0010537Y0203459D01*
X0010537Y0203459D01*
X0009549Y0205011D02*
X0008300Y0205011D01*
X0008717Y0204212D02*
X0008717Y0204212D01*
X0008717Y0204212D01*
X0008300Y0206609D02*
X0009300Y0206609D01*
X0009300Y0208208D02*
X0008300Y0208208D01*
X0008300Y0209806D02*
X0010367Y0209806D01*
X0008300Y0211405D02*
X0033765Y0211405D01*
X0033765Y0213003D02*
X0008300Y0213003D01*
X0008300Y0214602D02*
X0033765Y0214602D01*
X0033765Y0216201D02*
X0008300Y0216201D01*
X0008300Y0217799D02*
X0033765Y0217799D01*
X0033765Y0219398D02*
X0031337Y0219398D01*
X0030240Y0218300D02*
X0032700Y0220760D01*
X0032700Y0224240D01*
X0030240Y0226700D01*
X0026760Y0226700D01*
X0024300Y0224240D01*
X0024300Y0220760D01*
X0026760Y0218300D01*
X0030240Y0218300D01*
X0032700Y0220996D02*
X0033765Y0220996D01*
X0033765Y0222595D02*
X0032700Y0222595D01*
X0032700Y0224193D02*
X0033765Y0224193D01*
X0033765Y0225792D02*
X0031148Y0225792D01*
X0025852Y0225792D02*
X0017900Y0225792D01*
X0017900Y0225177D02*
X0017900Y0227000D01*
X0013500Y0227000D01*
X0013500Y0227000D01*
X0013500Y0222600D01*
X0015323Y0222600D01*
X0017900Y0225177D01*
X0016916Y0224193D02*
X0024300Y0224193D01*
X0024300Y0222595D02*
X0008300Y0222595D01*
X0008300Y0224193D02*
X0010084Y0224193D01*
X0009100Y0225177D02*
X0011677Y0222600D01*
X0013500Y0222600D01*
X0013500Y0227000D01*
X0013500Y0227000D01*
X0013500Y0227000D01*
X0009100Y0227000D01*
X0009100Y0225177D01*
X0009100Y0225792D02*
X0008300Y0225792D01*
X0008300Y0220996D02*
X0024300Y0220996D01*
X0025663Y0219398D02*
X0008300Y0219398D01*
X0013500Y0224193D02*
X0013500Y0224193D01*
X0013500Y0225792D02*
X0013500Y0225792D01*
X0090518Y0133078D02*
X0097059Y0133078D01*
X0094944Y0134676D02*
X0092116Y0134676D01*
X0092700Y0136275D02*
X0094325Y0136275D01*
X0094343Y0137873D02*
X0092700Y0137873D01*
X0093942Y0139472D02*
X0095068Y0139472D01*
X0095540Y0141070D02*
X0096400Y0141070D01*
X0098126Y0128282D02*
X0093309Y0128282D01*
X0094100Y0126684D02*
X0100400Y0126684D01*
X0098500Y0125085D02*
X0098500Y0125085D01*
X0098500Y0123487D02*
X0098500Y0123487D01*
X0095363Y0125085D02*
X0094018Y0125085D01*
X0094100Y0123487D02*
X0093078Y0123487D01*
X0092600Y0121888D02*
X0094100Y0121888D01*
X0099366Y0113896D02*
X0105400Y0113896D01*
X0105400Y0115494D02*
X0100964Y0115494D01*
X0102563Y0117093D02*
X0104437Y0117093D01*
X0105400Y0112297D02*
X0097767Y0112297D01*
X0097339Y0109100D02*
X0099378Y0109100D01*
X0099100Y0107502D02*
X0097700Y0107502D01*
X0097700Y0105903D02*
X0099100Y0105903D01*
X0099973Y0104305D02*
X0096744Y0104305D01*
X0096169Y0110699D02*
X0100976Y0110699D01*
X0103500Y0110699D02*
X0103500Y0110699D01*
X0103500Y0109100D02*
X0103500Y0109100D01*
X0103500Y0107502D02*
X0103500Y0107502D01*
X0108592Y0085123D02*
X0109901Y0085123D01*
X0109901Y0083524D02*
X0108172Y0083524D01*
X0108400Y0081926D02*
X0109901Y0081926D01*
X0109901Y0080327D02*
X0108111Y0080327D01*
X0107158Y0078729D02*
X0109901Y0078729D01*
X0053904Y0016387D02*
X0052905Y0016387D01*
X0053100Y0014788D02*
X0053700Y0014788D01*
X0053700Y0013190D02*
X0053100Y0013190D01*
X0053100Y0011591D02*
X0053700Y0011591D01*
X0053700Y0009993D02*
X0053100Y0009993D01*
X0053100Y0008394D02*
X0053736Y0008394D01*
X0054236Y0006796D02*
X0052566Y0006796D01*
X0013700Y0022781D02*
X0013300Y0022781D01*
X0013300Y0024379D02*
X0013700Y0024379D01*
X0013700Y0025978D02*
X0013300Y0025978D01*
X0011376Y0027576D02*
X0010600Y0027576D01*
M02*
