G75*
%MOIN*%
%OFA0B0*%
%FSLAX25Y25*%
%IPPOS*%
%LPD*%
%AMOC8*
5,1,8,0,0,1.08239X$1,22.5*
%
%ADD10R,0.06000X0.06000*%
%ADD11C,0.06600*%
%ADD12R,0.06600X0.06600*%
%ADD13OC8,0.05200*%
%ADD14R,0.05900X0.05900*%
%ADD15C,0.05900*%
%ADD16C,0.07087*%
%ADD17C,0.05150*%
%ADD18C,0.07874*%
%ADD19C,0.08661*%
%ADD20R,0.01772X0.05118*%
%ADD21C,0.06000*%
%ADD22R,0.03150X0.04724*%
%ADD23C,0.01000*%
%ADD24C,0.04000*%
%ADD25C,0.01600*%
%ADD26C,0.03962*%
D10*
X0013500Y0092000D03*
D11*
X0013500Y0022000D03*
X0013500Y0032000D03*
X0013500Y0042000D03*
X0013500Y0052000D03*
X0013500Y0062000D03*
X0013500Y0072000D03*
X0013500Y0082000D03*
X0078500Y0122000D03*
X0078500Y0132000D03*
X0078500Y0142000D03*
X0078500Y0152000D03*
X0078500Y0162000D03*
X0078500Y0172000D03*
X0078500Y0182000D03*
X0078500Y0192000D03*
X0103500Y0082000D03*
X0103500Y0072000D03*
X0103500Y0062000D03*
X0103500Y0052000D03*
X0103500Y0042000D03*
X0103500Y0032000D03*
X0103500Y0022000D03*
D12*
X0103500Y0092000D03*
D13*
X0103500Y0107000D03*
X0098500Y0122000D03*
X0093500Y0107000D03*
X0088500Y0117000D03*
X0088500Y0137000D03*
X0088500Y0147000D03*
X0088500Y0167000D03*
X0088500Y0177000D03*
X0088500Y0197000D03*
X0086000Y0204500D03*
X0086000Y0224500D03*
X0108500Y0122000D03*
X0078500Y0077000D03*
X0078500Y0057000D03*
X0073500Y0047000D03*
X0073500Y0037000D03*
X0073500Y0027000D03*
X0063500Y0036000D03*
X0063500Y0047000D03*
X0053500Y0027000D03*
X0043500Y0036000D03*
X0043500Y0047000D03*
X0027500Y0041000D03*
X0027500Y0033000D03*
X0027500Y0023000D03*
X0027500Y0061000D03*
X0027500Y0068000D03*
X0027500Y0088000D03*
X0027500Y0096000D03*
X0027500Y0106000D03*
X0031000Y0115000D03*
X0032000Y0128000D03*
X0031500Y0141000D03*
X0031000Y0152000D03*
X0012000Y0128000D03*
X0011500Y0141000D03*
X0011000Y0152000D03*
X0011000Y0115000D03*
X0028500Y0202500D03*
X0028500Y0222500D03*
X0013500Y0227000D03*
X0013500Y0207000D03*
D14*
X0038500Y0192000D03*
D15*
X0038500Y0182000D03*
X0038500Y0172000D03*
X0038500Y0162000D03*
X0038500Y0152000D03*
X0038500Y0142000D03*
X0038500Y0132000D03*
X0038500Y0122000D03*
X0038500Y0112000D03*
X0038500Y0102000D03*
X0038500Y0092000D03*
X0038500Y0082000D03*
X0038500Y0072000D03*
X0038500Y0062000D03*
X0068500Y0062000D03*
X0068500Y0072000D03*
X0068500Y0082000D03*
X0068500Y0092000D03*
X0068500Y0102000D03*
X0068500Y0112000D03*
X0068500Y0122000D03*
X0068500Y0132000D03*
X0068500Y0142000D03*
X0068500Y0152000D03*
X0068500Y0162000D03*
X0068500Y0172000D03*
X0068500Y0182000D03*
X0068500Y0192000D03*
D16*
X0021000Y0189000D03*
X0021000Y0170000D03*
D17*
X0078500Y0097000D03*
X0078500Y0087000D03*
X0098500Y0137000D03*
X0098500Y0147000D03*
X0098500Y0162000D03*
X0098500Y0172000D03*
X0098500Y0187000D03*
X0098500Y0197000D03*
X0098500Y0212000D03*
X0098500Y0222000D03*
D18*
X0073756Y0211587D03*
X0043244Y0211587D03*
D19*
X0043835Y0226547D03*
X0073165Y0226547D03*
D20*
X0063618Y0226547D03*
X0061059Y0226547D03*
X0058500Y0226547D03*
X0055941Y0226547D03*
X0053382Y0226547D03*
D21*
X0048500Y0015000D02*
X0048500Y0009000D01*
X0038500Y0009000D02*
X0038500Y0015000D01*
X0058500Y0015000D02*
X0058500Y0009000D01*
X0068500Y0009000D02*
X0068500Y0015000D01*
X0078500Y0015000D02*
X0078500Y0009000D01*
X0088500Y0009000D02*
X0088500Y0015000D01*
D22*
X0093500Y0088063D03*
X0093500Y0095937D03*
D23*
X0093500Y0096000D01*
X0098500Y0096000D01*
X0108500Y0106000D01*
X0108500Y0122000D01*
X0100500Y0131000D02*
X0102500Y0133000D01*
X0102500Y0180000D01*
X0094500Y0191000D02*
X0094500Y0166000D01*
X0098500Y0162000D01*
X0092500Y0156000D01*
X0092500Y0128000D01*
X0090500Y0126000D01*
X0094500Y0133000D02*
X0094500Y0117000D01*
X0087500Y0110000D01*
X0087500Y0041000D01*
X0085500Y0039000D01*
X0085500Y0037000D01*
X0094500Y0028000D01*
X0078500Y0012000D01*
X0068500Y0012000D02*
X0079500Y0023000D01*
X0079500Y0052000D01*
X0082500Y0055000D01*
X0082500Y0070000D01*
X0081500Y0071000D01*
X0082500Y0070000D02*
X0082500Y0112000D01*
X0081500Y0113000D01*
X0083500Y0116000D02*
X0083500Y0147000D01*
X0078500Y0152000D01*
X0082500Y0157000D02*
X0083500Y0158000D01*
X0083500Y0167000D01*
X0078500Y0172000D01*
X0082500Y0177000D02*
X0083500Y0178000D01*
X0083500Y0184000D01*
X0085500Y0186000D01*
X0088500Y0188000D02*
X0088500Y0192000D01*
X0078500Y0192000D01*
X0078500Y0197000D01*
X0086000Y0204500D01*
X0088500Y0197000D02*
X0098500Y0197000D01*
X0092500Y0193000D02*
X0094500Y0191000D01*
X0089500Y0187000D02*
X0089500Y0176000D01*
X0088500Y0177000D01*
X0089500Y0176000D02*
X0092500Y0173000D01*
X0092500Y0159000D01*
X0088500Y0155000D01*
X0088500Y0147000D01*
X0098500Y0137000D02*
X0094500Y0133000D01*
X0098500Y0122000D02*
X0098500Y0112000D01*
X0103500Y0107000D01*
X0093500Y0107000D02*
X0090500Y0104000D01*
X0090500Y0092000D01*
X0093500Y0089000D01*
X0093500Y0088063D01*
X0093500Y0088000D01*
X0089500Y0084000D01*
X0089500Y0038000D01*
X0085500Y0044000D02*
X0085500Y0114000D01*
X0083500Y0116000D01*
X0078500Y0087000D02*
X0078500Y0077000D01*
X0078500Y0057000D02*
X0073500Y0052000D01*
X0073500Y0047000D01*
X0067500Y0041000D01*
X0067500Y0021000D01*
X0058500Y0012000D01*
X0053500Y0021000D02*
X0057500Y0025000D01*
X0057500Y0123000D01*
X0055500Y0125000D01*
X0055500Y0157000D01*
X0049500Y0163000D01*
X0045500Y0145000D02*
X0047500Y0143000D01*
X0047500Y0108000D01*
X0049500Y0106000D01*
X0049500Y0101000D02*
X0049500Y0081000D01*
X0038500Y0072000D02*
X0033500Y0077000D01*
X0033500Y0090000D01*
X0027500Y0096000D01*
X0024500Y0099000D02*
X0023500Y0098000D01*
X0023500Y0084000D01*
X0027500Y0088000D01*
X0023500Y0084000D02*
X0023500Y0065000D01*
X0027500Y0061000D01*
X0031500Y0057000D01*
X0031500Y0037000D01*
X0027500Y0033000D01*
X0023500Y0037000D02*
X0023500Y0027000D01*
X0027500Y0023000D01*
X0023500Y0037000D02*
X0027500Y0041000D01*
X0035500Y0041000D02*
X0037500Y0043000D01*
X0037500Y0054000D01*
X0043500Y0060000D01*
X0043500Y0127000D01*
X0038500Y0132000D01*
X0032500Y0128000D02*
X0032500Y0121000D01*
X0035500Y0118000D01*
X0035500Y0115000D01*
X0038500Y0112000D01*
X0038500Y0102000D02*
X0037500Y0102000D01*
X0026500Y0113000D01*
X0026500Y0142000D01*
X0028500Y0144000D01*
X0028500Y0148000D01*
X0026500Y0150000D01*
X0026500Y0154000D01*
X0015500Y0165000D01*
X0015500Y0191000D01*
X0017500Y0193000D01*
X0017500Y0211000D01*
X0028500Y0222000D01*
X0028500Y0222500D01*
X0033500Y0227000D02*
X0033500Y0203000D01*
X0037500Y0199000D01*
X0053500Y0199000D01*
X0053455Y0199002D01*
X0048500Y0189000D02*
X0045500Y0186000D01*
X0045500Y0145000D01*
X0045500Y0142000D02*
X0040500Y0147000D01*
X0031500Y0147000D01*
X0031500Y0152000D01*
X0031000Y0152000D01*
X0024500Y0147000D02*
X0022500Y0145000D01*
X0022500Y0100000D01*
X0018500Y0096000D01*
X0018500Y0067000D01*
X0013500Y0062000D01*
X0013500Y0082000D02*
X0008500Y0087000D01*
X0008500Y0113000D01*
X0010500Y0115000D01*
X0011000Y0115000D01*
X0012000Y0128000D02*
X0012500Y0128000D01*
X0014500Y0130000D01*
X0014500Y0138000D01*
X0017500Y0141000D01*
X0017500Y0160000D01*
X0013500Y0164000D01*
X0013500Y0207000D01*
X0021500Y0195000D02*
X0021500Y0189000D01*
X0021000Y0189000D01*
X0021500Y0195000D02*
X0028500Y0202000D01*
X0028500Y0202500D01*
X0033500Y0227000D02*
X0013500Y0227000D01*
X0031500Y0141000D02*
X0031500Y0128000D01*
X0032000Y0128000D01*
X0032500Y0128000D01*
X0027500Y0106000D02*
X0024500Y0103000D01*
X0024500Y0099000D01*
X0016500Y0095000D02*
X0013500Y0092000D01*
X0016500Y0095000D02*
X0016500Y0131000D01*
X0018500Y0133000D01*
X0045500Y0142000D02*
X0045500Y0059000D01*
X0039500Y0053000D01*
X0039500Y0025000D01*
X0038500Y0024000D01*
X0038500Y0012000D01*
X0048500Y0012000D02*
X0048500Y0031000D01*
X0043500Y0036000D01*
X0053500Y0046000D01*
X0053500Y0127000D01*
X0051500Y0129000D01*
X0057500Y0123000D02*
X0063500Y0117000D01*
X0068500Y0122000D02*
X0058500Y0126000D01*
X0055941Y0226547D01*
X0058500Y0226547D02*
X0062500Y0135000D01*
X0068500Y0132000D01*
X0068500Y0112000D02*
X0061500Y0105000D01*
X0061500Y0069000D01*
X0068500Y0062000D02*
X0068500Y0052000D01*
X0063500Y0047000D01*
X0073500Y0037000D02*
X0073500Y0027000D01*
X0083500Y0042000D02*
X0085500Y0044000D01*
X0098500Y0032000D02*
X0094500Y0028000D01*
X0098500Y0032000D02*
X0098500Y0057000D01*
X0103500Y0062000D01*
X0089500Y0187000D02*
X0088500Y0188000D01*
D24*
X0085500Y0186000D03*
X0082500Y0177000D03*
X0092500Y0193000D03*
X0102500Y0180000D03*
X0082500Y0157000D03*
X0090500Y0126000D03*
X0081500Y0113000D03*
X0063500Y0117000D03*
X0051500Y0129000D03*
X0049500Y0106000D03*
X0049500Y0101000D03*
X0049500Y0081000D03*
X0061500Y0069000D03*
X0081500Y0071000D03*
X0083500Y0042000D03*
X0089500Y0038000D03*
X0053500Y0021000D03*
X0039500Y0025000D03*
X0035500Y0041000D03*
X0018500Y0133000D03*
X0024500Y0147000D03*
X0048500Y0189000D03*
X0049500Y0163000D03*
X0100500Y0131000D03*
D25*
X0072500Y0196000D02*
X0073500Y0063000D01*
X0068500Y0062000D01*
X0053500Y0182000D02*
X0053455Y0199002D01*
X0053382Y0226547D01*
X0063618Y0226547D02*
X0072500Y0196000D01*
D26*
X0053500Y0182000D03*
M02*
